<?xml version="1.0" standalone="no"?>
<!DOCTYPE svg PUBLIC "-//W3C//DTD SVG 20010904//EN"
 "http://www.w3.org/TR/2001/REC-SVG-20010904/DTD/svg10.dtd">
<svg version="1.0" xmlns="http://www.w3.org/2000/svg"
 width="1474.000000pt" height="2400.000000pt" viewBox="0 0 1474.000000 2400.000000"
 preserveAspectRatio="xMidYMid meet">

<g transform="translate(0.000000,2400.000000) scale(0.100000,-0.100000)"
fill="#000000" stroke="none">
<path d="M8080 23984 c-137 -36 -283 -135 -551 -376 -238 -213 -302 -258 -367
-258 -44 0 -57 7 -192 110 -411 312 -738 447 -1035 427 -151 -11 -269 -51
-372 -128 -66 -49 -104 -105 -133 -194 -12 -38 -43 -119 -67 -180 -64 -155
-73 -221 -82 -580 -4 -170 -11 -318 -16 -329 -9 -21 -31 -20 -217 13 -570 101
-1167 -11 -1593 -297 -202 -136 -463 -377 -517 -478 -37 -69 -57 -158 -65
-289 -7 -130 0 -149 94 -257 166 -192 401 -362 721 -522 326 -163 640 -273
1174 -411 136 -35 258 -69 270 -76 39 -20 67 -50 79 -86 6 -18 14 -31 19 -28
4 3 14 44 20 92 15 101 8 273 -15 373 -21 95 -19 146 6 171 15 15 28 19 47 14
89 -21 185 -98 262 -208 58 -81 68 -116 45 -151 -12 -17 -15 -35 -10 -56 4
-18 3 -30 -4 -30 -5 0 -47 35 -93 78 -95 90 -125 112 -150 112 -30 0 -21 -43
28 -137 38 -74 46 -101 53 -168 10 -102 21 -121 74 -136 50 -13 71 -30 102
-84 64 -110 134 -465 93 -465 -23 0 -79 40 -130 93 -27 29 -103 132 -169 229
-120 179 -139 202 -139 173 0 -26 37 -92 143 -250 114 -170 186 -251 262 -294
39 -22 58 -41 74 -74 33 -68 72 -250 78 -369 5 -97 4 -110 -17 -153 -20 -40
-38 -57 -134 -119 -61 -40 -124 -87 -139 -106 -68 -80 -97 -180 -97 -332 0
-43 -2 -78 -5 -78 -3 0 -38 17 -78 37 -64 32 -82 37 -163 41 -103 5 -168 -10
-268 -60 -136 -69 -224 -143 -353 -297 -244 -291 -268 -304 -803 -441 -685
-175 -883 -263 -1184 -525 -152 -132 -450 -483 -602 -710 -171 -255 -290 -469
-544 -980 -190 -383 -317 -610 -420 -754 -102 -143 -133 -215 -138 -321 -5
-94 7 -137 82 -305 47 -108 62 -207 47 -323 -14 -112 -26 -156 -121 -457 -196
-622 -408 -1417 -474 -1785 -19 -102 -50 -291 -70 -420 -20 -129 -56 -368 -81
-530 -67 -443 -117 -689 -160 -793 -61 -149 -85 -316 -85 -604 l0 -163 86
-178 c67 -140 92 -182 115 -196 16 -10 107 -105 201 -213 286 -326 569 -620
700 -726 69 -57 136 -79 253 -85 116 -5 182 8 306 63 136 60 295 97 658 154
477 76 613 126 970 361 100 66 186 120 190 120 15 0 176 -101 204 -127 33 -33
35 -78 8 -200 -20 -94 -40 -123 -85 -123 -84 -1 -270 -131 -306 -215 -10 -23
-41 -67 -69 -100 -82 -93 -144 -223 -181 -377 -24 -101 -25 -153 -4 -204 20
-48 16 -223 -7 -266 -8 -15 -42 -44 -76 -65 -34 -21 -118 -83 -185 -139 -145
-119 -191 -150 -238 -159 -90 -19 -264 -130 -393 -254 -200 -190 -259 -316
-372 -787 -92 -385 -147 -560 -228 -720 -19 -38 -49 -84 -65 -102 -48 -51 -71
-45 -229 53 -37 23 -63 30 -114 33 -86 5 -145 -24 -223 -110 -130 -143 -282
-553 -306 -823 -20 -227 -64 -422 -102 -452 -7 -6 -24 -14 -38 -18 -55 -16
-78 -54 -140 -227 -22 -62 -45 -117 -50 -122 -6 -6 -10 -54 -10 -108 l0 -98
30 0 c38 0 50 -23 50 -99 0 -65 -32 -248 -49 -280 -13 -24 -15 -654 -2 -631 9
16 121 403 171 593 17 65 42 175 56 245 13 69 31 133 39 141 13 13 24 13 70 4
30 -7 67 -18 82 -25 46 -22 47 -20 -61 -152 -19 -24 -29 -49 -30 -75 -2 -28
-14 -57 -41 -96 -34 -50 -37 -58 -25 -79 17 -34 7 -72 -62 -221 -89 -191 -107
-238 -108 -262 0 -31 17 -28 64 7 22 17 41 28 43 26 3 -2 -7 -27 -21 -54 -51
-101 -90 -294 -84 -421 3 -80 20 -103 39 -54 31 80 88 188 158 301 44 70 106
177 138 237 33 61 74 133 91 161 43 68 64 132 56 167 -4 20 2 42 21 78 19 36
24 59 20 79 -9 40 -52 80 -86 80 -35 0 -32 11 22 91 59 87 90 109 155 109 64
0 100 16 141 64 40 45 55 92 51 163 l-3 58 37 9 c21 5 38 15 38 22 0 17 -66
73 -93 78 -12 3 -39 8 -59 11 -61 10 -51 37 32 85 50 29 76 52 94 83 30 50
136 284 136 299 0 6 -15 7 -40 3 -22 -4 -40 -4 -40 -1 0 4 16 48 36 99 46 118
54 146 45 152 -5 2 -41 -16 -82 -40 -41 -25 -78 -45 -83 -45 -19 0 51 64 174
160 142 111 208 172 192 178 -16 5 -77 -29 -164 -91 -80 -58 -138 -92 -138
-81 0 3 32 37 70 75 75 74 93 112 43 85 -16 -8 -66 -46 -113 -85 -172 -142
-220 -176 -220 -153 0 4 36 52 81 106 84 104 104 134 95 143 -3 3 -29 -15 -58
-39 -65 -56 -93 -71 -117 -63 -15 4 -17 0 -13 -25 3 -23 -4 -38 -32 -72 -20
-23 -39 -54 -42 -68 -12 -58 -36 -108 -73 -153 -98 -118 -121 -331 -41 -372
19 -10 30 -23 30 -36 0 -18 -4 -20 -27 -15 -118 29 -270 146 -190 146 58 0
102 107 127 311 9 73 18 101 68 200 62 121 128 298 157 416 17 71 17 72 -5
118 -12 26 -47 73 -76 105 -30 32 -54 62 -54 66 0 14 105 93 152 114 24 11 59
20 78 20 85 0 169 -91 216 -234 34 -103 55 -144 91 -178 75 -71 173 -64 300
23 63 44 193 168 193 185 0 18 0 18 -57 -11 -28 -14 -82 -30 -128 -36 -77 -11
-212 -7 -248 7 -25 9 -21 36 13 80 149 193 319 558 350 749 9 58 18 83 94 265
34 82 46 137 27 126 -5 -4 -21 -37 -36 -75 -14 -38 -33 -75 -42 -83 -15 -12
-16 -8 -10 43 8 65 77 286 117 375 100 221 336 432 570 509 31 11 84 19 124
19 62 0 71 -2 91 -26 13 -15 26 -44 30 -65 10 -62 46 -115 100 -150 28 -17 63
-43 79 -58 29 -26 29 -28 11 -41 -10 -8 -28 -14 -40 -14 -37 0 -108 -56 -228
-178 -125 -127 -192 -205 -280 -323 -143 -194 -214 -387 -376 -1014 -124 -480
-129 -497 -374 -1190 -46 -132 -97 -280 -112 -330 -59 -196 -240 -616 -411
-951 -103 -204 -144 -277 -151 -270 -5 5 51 136 180 426 169 379 700 1900 673
1928 -13 12 -118 -263 -291 -763 -179 -516 -320 -889 -458 -1211 -83 -194
-149 -388 -183 -539 -44 -200 -170 -571 -332 -975 -77 -193 -105 -277 -93
-284 10 -6 57 73 123 208 29 60 72 130 94 155 23 25 69 101 102 167 91 182
234 412 307 493 41 46 56 75 150 301 145 350 292 609 619 1087 89 131 260 382
381 558 491 718 791 1178 856 1311 64 131 40 120 485 235 214 55 436 114 494
130 383 110 854 268 1325 444 298 111 438 155 548 171 30 4 40 11 51 38 8 18
27 43 44 55 99 70 300 133 365 114 20 -5 48 -29 75 -63 89 -111 284 -215 587
-315 265 -88 294 -92 600 -82 67 2 76 -1 235 -72 415 -185 548 -273 630 -415
17 -31 52 -74 78 -97 58 -51 287 -164 512 -252 145 -57 541 -187 570 -187 7 0
8 6 1 19 -14 26 -165 90 -348 148 l-153 48 0 212 c0 322 -13 389 -123 608 -93
187 -141 246 -236 295 l-55 27 65 12 c153 26 227 11 408 -85 136 -72 221 -132
221 -155 0 -22 29 -38 125 -69 39 -13 104 -39 145 -58 128 -58 239 -92 380
-113 74 -11 161 -27 194 -35 32 -8 60 -13 62 -11 3 2 -30 34 -73 71 -100 86
-218 143 -401 195 -197 56 -322 106 -568 227 -241 119 -293 134 -384 116 -102
-21 -181 -25 -289 -13 -252 27 -518 109 -633 194 -16 12 -48 46 -71 77 -22 30
-84 99 -136 152 l-94 98 99 0 c111 0 208 17 248 43 47 31 33 40 -46 31 -117
-13 -183 -11 -183 5 0 38 201 99 352 108 111 7 214 -8 343 -50 147 -47 165
-44 343 46 l152 76 -95 -90 c-108 -103 -275 -232 -400 -309 -129 -80 -198
-140 -160 -140 6 0 59 22 118 49 146 66 225 90 325 101 165 17 333 109 576
315 36 30 68 55 73 55 16 0 7 -37 -28 -115 -101 -224 -124 -283 -124 -317 0
-51 17 -49 92 7 59 44 108 58 108 31 0 -7 -15 -43 -34 -79 -34 -65 -54 -146
-41 -166 9 -16 54 10 187 110 64 49 120 89 123 89 3 0 3 -47 -1 -105 -8 -128
5 -173 72 -235 65 -60 102 -72 219 -74 l100 -1 15 -33 c10 -25 19 -32 33 -28
25 6 42 -16 80 -104 40 -91 137 -244 137 -215 0 19 -41 231 -55 288 -11 43 8
32 69 -39 31 -36 56 -60 56 -53 0 31 -43 257 -69 364 -72 290 -166 572 -282
838 -91 207 -104 266 -88 401 25 225 6 448 -47 566 -31 69 -48 87 -88 96 -44
9 -55 21 -63 68 -5 30 -17 52 -49 83 -24 23 -45 52 -48 65 -2 13 -10 55 -16
95 -12 72 -59 185 -101 242 -12 16 -35 35 -50 42 -16 6 -29 18 -29 27 0 24
206 224 227 220 11 -2 34 -35 59 -85 72 -140 199 -310 426 -568 250 -284 491
-516 583 -563 65 -32 151 -45 300 -45 162 0 250 18 332 64 305 175 630 578
883 1094 207 425 305 620 344 690 53 93 109 258 127 368 15 98 5 162 -58 381
-58 200 -61 271 -19 446 61 246 97 315 237 440 229 207 550 548 753 801 156
196 310 468 347 614 11 43 10 47 -19 92 -28 43 -29 49 -17 72 7 14 30 42 50
61 111 104 112 255 2 368 -64 66 -88 76 -172 68 -83 -8 -89 -3 -98 61 -3 23
-21 68 -41 100 -43 69 -94 255 -103 373 -5 75 -5 75 42 165 60 113 75 167 75
280 0 169 -49 295 -165 424 -108 119 -107 158 6 428 78 188 80 200 36 283 -39
74 -82 200 -127 379 -17 67 -37 139 -46 160 -15 37 -14 41 7 83 64 125 338
475 507 647 97 99 111 109 151 114 31 4 53 15 77 38 47 46 60 82 45 125 -16
45 -8 77 39 155 45 72 49 94 20 109 -57 30 2 170 161 380 177 234 186 288 70
392 -57 51 -142 98 -178 98 -34 0 -81 -26 -133 -75 -81 -74 -92 -79 -199 -80
-90 -1 -100 -3 -169 -38 l-73 -38 20 -27 c10 -15 44 -58 75 -97 47 -59 53 -72
42 -85 -70 -81 -311 -391 -533 -685 -242 -322 -319 -419 -551 -694 -93 -111
-277 -355 -467 -621 -173 -242 -245 -337 -303 -403 l-33 -39 7 -136 c7 -142
-5 -266 -31 -329 -15 -35 -41 -51 -135 -83 -81 -27 -140 -60 -207 -116 -49
-42 -73 -54 -73 -36 0 5 9 35 20 67 30 87 26 133 -21 243 -54 127 -98 292
-165 617 -121 592 -155 693 -376 1146 l-130 265 -216 121 c-268 150 -343 188
-426 214 -91 27 -225 120 -365 250 -64 60 -206 190 -316 289 -110 99 -211 196
-225 216 -22 33 -24 47 -26 158 -1 129 -27 254 -74 365 -21 48 -30 56 -114
105 -50 29 -195 106 -322 170 -128 65 -267 140 -309 168 l-78 51 7 85 c14 170
107 676 166 902 27 102 34 118 62 139 50 37 194 188 226 237 23 34 30 58 35
121 4 51 22 128 52 222 25 79 57 201 71 270 13 69 27 134 30 144 9 28 43 45
141 66 257 56 1008 412 1365 647 234 154 485 385 631 579 117 156 247 450 247
558 0 97 -62 232 -138 298 -90 79 -454 206 -727 254 -238 42 -650 4 -1005 -91
-272 -73 -452 -143 -697 -270 -145 -74 -183 -90 -183 -76 0 36 -20 251 -31
332 -16 125 -42 229 -113 459 -36 113 -97 312 -136 441 -104 341 -154 436
-240 460 -51 14 -196 11 -260 -6z m230 -82 c37 -18 52 -55 27 -65 -8 -3 -43 1
-78 8 -35 8 -66 11 -68 9 -3 -2 17 -24 45 -49 l49 -44 -66 6 c-77 7 -121 -11
-147 -58 -10 -16 -28 -32 -42 -35 -14 -3 -36 -7 -49 -10 -23 -5 -23 -8 -17
-65 6 -67 7 -66 -57 -16 -43 34 -52 32 -37 -8 13 -35 7 -55 -19 -55 -66 0
-222 -328 -225 -473 -1 -47 3 -61 18 -73 28 -20 65 -17 84 6 11 13 37 24 76
30 78 13 137 49 227 142 42 43 78 78 81 78 3 0 -3 -55 -13 -122 -10 -68 -19
-128 -19 -135 0 -6 37 27 83 75 112 117 186 184 200 179 8 -2 14 -39 18 -98 5
-86 10 -103 52 -190 47 -95 59 -146 35 -136 -67 25 -70 20 -33 -53 14 -28 22
-50 19 -50 -4 0 -21 10 -38 23 -54 41 -56 39 -25 -28 21 -44 29 -73 25 -90 -7
-26 11 -67 64 -152 29 -46 39 -83 21 -83 -4 0 -26 14 -47 31 -21 17 -40 26
-42 20 -2 -6 4 -36 13 -68 18 -61 66 -117 136 -158 18 -11 35 -28 37 -38 5
-22 -43 -97 -62 -97 -7 0 -32 14 -54 30 -50 36 -56 37 -48 6 4 -15 0 -28 -9
-36 -21 -17 -184 -28 -620 -40 -500 -14 -725 -32 -1024 -81 -100 -17 -129 -18
-152 -8 -16 6 -113 99 -216 206 -200 208 -273 266 -405 321 -112 47 -220 62
-439 62 l-189 0 0 44 c0 120 22 517 36 639 40 369 142 554 334 611 105 31 314
13 442 -39 87 -35 215 -128 413 -301 219 -189 282 -238 359 -275 74 -35 143
-44 226 -29 125 23 176 64 405 335 220 260 337 361 457 396 85 24 212 25 258
1z m2473 -1276 c101 -19 293 -78 352 -110 l40 -21 -34 -3 c-19 -2 -96 8 -171
23 -204 39 -374 27 -260 -19 80 -32 50 -38 -152 -30 -129 5 -189 4 -185 -3 4
-6 43 -25 88 -44 44 -18 76 -35 70 -37 -6 -2 -85 8 -177 23 -91 15 -168 25
-170 22 -2 -2 28 -19 68 -37 281 -126 324 -164 132 -116 -59 15 -109 25 -111
22 -6 -5 58 -65 70 -66 4 0 7 -7 7 -15 0 -28 -76 -38 -241 -32 -87 3 -160 3
-163 0 -3 -4 3 -16 14 -28 l21 -22 -41 -6 c-54 -7 -58 -13 -27 -38 15 -11 27
-26 27 -34 0 -7 28 -23 63 -35 171 -61 227 -89 227 -115 0 -21 -22 -19 -114
10 -217 70 -487 54 -931 -54 -88 -21 -153 -41 -145 -44 8 -3 51 -13 95 -22 85
-18 130 -39 119 -57 -8 -13 -91 -5 -232 22 -129 25 -154 25 -177 0 -11 -13
-31 -20 -54 -21 -20 0 -44 -4 -54 -7 -16 -7 -16 -10 8 -30 14 -12 23 -27 20
-32 -22 -35 -326 -50 -965 -48 -476 2 -616 -5 -865 -44 -88 -13 -203 -22 -355
-25 -231 -6 -628 11 -644 27 -5 5 16 16 50 25 33 9 86 25 119 35 l60 18 -368
1 c-320 1 -386 -2 -514 -20 -276 -38 -696 -127 -880 -186 -147 -46 -127 -72
25 -34 96 24 243 39 482 47 234 9 355 0 378 -27 15 -18 25 -19 106 -13 65 5
87 4 82 -4 -4 -7 -46 -33 -93 -59 -47 -27 -118 -78 -157 -114 -63 -59 -70 -69
-69 -103 1 -26 -4 -39 -18 -46 -17 -10 -16 -13 14 -56 29 -42 32 -52 32 -127
1 -87 8 -112 31 -121 20 -8 18 -24 -12 -81 -25 -49 -25 -53 -19 -182 5 -86 4
-133 -3 -133 -5 0 -20 25 -32 55 -29 71 -89 138 -142 160 -35 14 -60 16 -131
10 -55 -4 -87 -3 -87 3 0 6 35 24 78 42 95 39 122 56 122 76 0 14 -11 15 -81
9 l-81 -7 7 52 c7 52 7 52 -16 44 -35 -13 -332 -7 -414 8 -74 14 -86 27 -36
42 46 13 38 26 -16 27 -27 0 -70 4 -98 8 l-50 8 39 17 c21 9 35 20 32 24 -4 3
-82 9 -175 13 -92 4 -178 10 -190 14 -22 7 -22 7 -4 27 l18 21 -100 -8 c-154
-11 -162 -10 -170 15 -9 28 -42 33 -129 20 -87 -13 -107 -9 -121 22 -6 14 -26
28 -49 36 -21 7 -57 32 -80 55 -34 36 -56 48 -126 70 -143 45 -202 116 -202
243 0 54 5 77 35 137 61 124 283 347 475 478 324 222 700 323 1132 305 260
-10 462 -47 715 -131 299 -99 564 -227 957 -464 l234 -141 124 0 c222 0 476
19 966 71 154 16 375 36 492 43 278 19 265 13 656 299 264 194 510 309 913
427 404 118 818 153 1136 96z m-2943 -661 c37 -19 47 -50 24 -76 -53 -59 -365
-99 -765 -99 -225 0 -295 9 -336 45 l-27 22 27 18 c37 24 168 42 450 60 133 9
280 20 327 25 112 13 105 14 120 -17 9 -20 14 -24 18 -13 2 8 11 23 20 33 19
22 101 23 142 2z m293 -5 c17 -24 11 -69 -11 -77 -29 -12 -78 68 -55 90 13 14
52 6 66 -13z m-2362 -410 c11 0 17 -4 14 -10 -8 -13 -102 -13 -110 -1 -6 10
40 20 63 14 8 -1 23 -3 33 -3z m-231 -40 c11 -7 -3 -10 -45 -10 -42 0 -56 3
-45 10 8 5 29 10 45 10 17 0 37 -5 45 -10z m740 -120 c124 -11 380 -39 570
-61 190 -22 370 -42 402 -46 31 -3 61 -9 68 -13 8 -5 14 -56 17 -154 3 -80 7
-145 9 -144 1 2 7 48 14 103 13 115 28 183 42 191 6 4 21 -6 35 -20 18 -20 30
-25 42 -19 9 4 113 7 231 7 218 -1 435 -18 705 -55 139 -20 197 -20 252 -4 18
6 25 0 41 -32 53 -103 155 -714 156 -933 1 -148 -10 -188 -108 -417 -35 -82
-76 -187 -91 -234 -14 -48 -36 -101 -48 -119 -12 -18 -28 -43 -34 -54 -14 -24
-17 -76 -4 -76 4 0 34 28 67 63 44 47 59 58 62 45 6 -29 -26 -179 -98 -463
-75 -298 -131 -482 -163 -535 -88 -147 -302 -364 -468 -474 -96 -63 -338 -99
-669 -100 -248 0 -322 12 -435 69 -160 81 -513 353 -701 540 -112 110 -126
128 -167 215 -54 114 -112 277 -166 461 -66 229 -84 329 -87 480 -2 120 -5
146 -32 231 -18 56 -35 138 -42 199 -12 123 -4 889 11 1017 10 87 39 176 94
297 l32 71 119 -8 c65 -4 220 -17 344 -28z m2870 -216 c0 -34 -14 -59 -66
-117 -24 -27 -48 -65 -53 -84 -11 -40 -37 -73 -58 -73 -18 0 -11 23 34 115 62
123 103 185 124 185 14 0 19 -7 19 -26z m-3590 -33 c0 -26 -14 -41 -41 -41
-15 0 -10 32 8 52 23 26 33 22 33 -11z m3609 -316 c60 -51 66 -156 17 -310
-47 -150 -78 -157 -52 -12 21 114 19 170 -7 175 -27 5 -44 -13 -125 -138 -84
-129 -85 -129 -98 -6 -13 130 34 263 107 299 53 26 121 22 158 -8z m-106 -382
c38 -85 70 -219 64 -269 -3 -28 -33 -94 -92 -200 -97 -175 -122 -214 -136
-214 -28 0 21 155 71 225 69 95 84 128 88 192 4 51 1 64 -12 69 -20 8 -45 -12
-58 -46 l-11 -25 -9 30 c-9 33 -2 147 14 210 11 44 34 85 47 85 4 0 20 -26 34
-57z m-73 -738 c0 -68 -154 -286 -192 -273 -32 12 8 132 74 224 51 71 118 99
118 49z m-3182 -1045 c-5 -51 -32 -111 -106 -235 -36 -61 -56 -119 -78 -232
-2 -13 -18 -36 -34 -53 -17 -17 -30 -34 -30 -39 0 -22 30 -31 88 -25 53 6 62
4 68 -11 10 -26 -7 -47 -65 -78 -77 -43 -158 -158 -181 -262 -11 -50 -3 -78
27 -90 10 -4 63 -11 118 -16 71 -6 107 -14 125 -27 27 -20 72 -92 170 -272
134 -246 277 -438 451 -605 166 -160 340 -279 600 -410 262 -133 336 -155 524
-155 310 0 564 51 573 116 3 23 -24 38 -90 50 -32 5 -41 2 -61 -20 -30 -32
-48 -32 -125 -1 -34 14 -66 25 -72 25 -5 0 -9 -21 -7 -47 2 -43 0 -48 -18 -45
-11 2 -50 23 -87 48 -36 24 -76 44 -87 44 -20 0 -21 -4 -15 -50 4 -27 3 -50
-2 -50 -11 0 -78 38 -199 112 -49 30 -241 137 -425 237 -513 280 -591 338
-740 549 -131 186 -271 425 -257 439 9 9 58 -31 189 -155 117 -110 198 -173
293 -227 28 -16 129 -81 225 -145 208 -138 337 -217 489 -298 165 -89 347
-173 389 -179 l37 -5 -20 20 c-11 11 -80 52 -152 91 -309 165 -695 433 -1088
756 -93 77 -206 168 -250 201 -91 69 -141 121 -190 198 -35 55 -54 106 -38
106 4 0 62 -32 128 -71 130 -77 797 -410 1340 -669 721 -345 862 -399 1015
-388 58 5 80 12 139 47 78 46 81 47 81 25 0 -41 -118 -116 -305 -193 -63 -26
-117 -50 -120 -53 -3 -3 22 -16 56 -28 33 -13 63 -29 66 -36 3 -8 -7 -28 -21
-45 -14 -17 -26 -34 -26 -39 0 -58 173 49 417 257 202 172 460 456 532 584 58
104 53 260 -10 314 -42 34 -85 40 -219 25 -138 -15 -202 -5 -243 38 -39 41
-49 78 -48 183 0 98 11 149 33 149 6 0 64 -54 127 -120 64 -66 122 -120 129
-120 36 0 -11 82 -102 180 -113 121 -111 123 19 20 216 -170 267 -201 355
-216 120 -19 156 -32 184 -65 31 -37 33 -71 7 -140 -28 -72 -167 -275 -332
-484 -188 -238 -305 -395 -399 -535 -43 -63 -89 -126 -104 -139 -28 -26 -34
-51 -13 -51 6 0 50 23 97 50 88 52 100 57 100 40 0 -30 -405 -318 -534 -380
-160 -76 -343 -94 -521 -51 -95 23 -104 24 -195 11 -176 -24 -192 -24 -261 5
-97 40 -100 41 -120 14 -17 -23 -19 -23 -75 -11 -32 6 -59 10 -62 8 -2 -3 22
-25 54 -50 64 -50 119 -74 240 -106 44 -12 107 -37 140 -56 144 -84 160 -89
274 -89 100 0 109 2 170 34 36 18 86 44 113 58 58 29 203 62 276 63 36 0 65
-7 91 -21 l38 -22 62 41 c58 39 93 52 270 103 41 11 94 31 117 43 52 26 367
318 432 401 60 75 71 96 71 135 0 46 -25 49 -68 7 -96 -92 -567 -346 -621
-335 -11 3 20 40 94 117 129 133 211 198 263 206 161 25 228 49 285 103 51 48
60 77 68 227 4 77 12 159 18 183 21 78 46 46 60 -79 12 -100 27 -146 52 -159
27 -15 53 5 91 72 56 100 51 99 81 17 26 -72 54 -178 76 -289 17 -84 22 -89
71 -61 22 12 62 26 88 29 47 7 47 7 50 50 2 23 6 42 9 42 3 0 20 -7 39 -16 54
-26 45 -47 -49 -108 -94 -63 -204 -171 -236 -233 -19 -37 -21 -58 -20 -169 1
-125 0 -127 -29 -168 -39 -54 -96 -170 -167 -336 -138 -325 -163 -357 -515
-665 -69 -60 -240 -224 -380 -365 -366 -365 -549 -580 -627 -733 -19 -38 -36
-67 -37 -66 -2 2 -29 69 -60 149 -102 260 -232 493 -349 625 -44 50 -110 95
-122 83 -11 -11 13 -46 102 -146 136 -154 156 -223 113 -383 -68 -248 -90
-345 -89 -392 l0 -52 14 30 c8 17 37 102 64 190 51 160 83 231 101 220 5 -3 7
-26 3 -50 -5 -41 -4 -45 19 -54 27 -10 38 -29 38 -65 0 -37 50 -102 108 -140
31 -20 63 -35 71 -34 8 2 60 59 115 128 123 151 335 370 359 370 26 0 22 -67
-9 -178 -21 -73 -24 -96 -15 -105 22 -22 46 26 81 159 49 191 54 200 179 282
58 39 194 123 301 187 571 343 823 581 1030 974 47 88 87 161 90 161 3 0 29
-48 59 -107 68 -138 158 -277 212 -328 23 -22 40 -35 37 -30 -3 6 -18 42 -33
80 -15 39 -68 161 -116 272 -49 111 -89 205 -89 210 0 14 107 92 154 113 64
27 109 38 265 65 75 13 179 33 231 46 62 14 106 20 125 15 57 -14 236 -219
297 -340 120 -238 265 -767 359 -1311 50 -291 77 -394 139 -525 35 -74 57
-140 74 -220 23 -105 48 -203 120 -457 14 -51 26 -99 26 -109 0 -25 -125 -168
-309 -354 -124 -125 -166 -161 -169 -147 -2 10 9 58 24 107 41 136 23 154 -66
62 -49 -51 -74 -89 -174 -264 -15 -27 -31 -48 -36 -48 -14 0 18 77 96 232 173
346 253 650 269 1028 8 186 -3 176 -74 -68 -69 -234 -119 -394 -131 -412 -21
-34 -22 10 -1 173 35 275 50 797 32 1067 -5 82 -8 55 -19 -200 -14 -305 -35
-614 -53 -780 -11 -95 -53 -338 -61 -345 -2 -2 -25 10 -50 26 -81 53 -100 21
-138 -221 -41 -265 -234 -1102 -304 -1320 -30 -94 -31 -77 -11 172 32 378 68
627 141 957 25 113 48 232 51 266 5 58 4 63 -21 82 -49 39 -202 112 -277 132
-110 30 -181 38 -544 62 -181 11 -375 26 -430 33 -55 7 -101 12 -102 11 -2 -1
19 -53 47 -116 58 -135 108 -321 148 -552 l29 -167 -186 -124 c-214 -143 -343
-249 -488 -399 -115 -120 -182 -212 -190 -262 -5 -33 -4 -35 24 -35 26 0 32 6
47 43 42 110 403 451 657 620 144 95 177 95 94 0 -25 -28 -45 -54 -45 -57 0
-2 20 2 46 11 25 8 47 13 50 10 8 -8 -35 -150 -48 -159 -7 -5 -48 -27 -90 -48
-151 -77 -197 -147 -206 -304 -8 -164 31 -256 138 -325 82 -53 217 -101 283
-101 163 1 278 150 279 362 0 51 -6 77 -28 121 -41 85 -112 168 -174 204 -106
61 -105 59 -108 166 -6 143 -8 140 248 289 102 60 119 82 43 57 -45 -14 -161
-71 -215 -105 -39 -25 -78 -32 -78 -14 0 18 50 59 137 111 77 47 100 69 71 69
-12 0 -69 -28 -156 -74 -63 -34 -72 -19 -107 201 -28 174 -50 266 -95 397 -16
49 -28 91 -26 93 10 10 538 -19 656 -36 293 -43 523 -109 568 -164 13 -16 7
-50 -72 -402 -93 -414 -167 -1000 -152 -1206 5 -78 3 -90 -19 -136 -29 -58
-135 -166 -226 -230 -131 -91 -347 -183 -513 -217 -104 -22 -149 -20 -204 8
-144 73 -891 320 -910 301 -17 -17 17 -34 438 -212 372 -158 424 -175 516
-175 140 1 386 78 574 179 131 71 197 119 298 217 50 49 92 84 92 78 0 -20
-82 -253 -126 -359 -86 -207 -265 -485 -612 -951 -340 -458 -645 -828 -922
-1121 -147 -156 -254 -281 -246 -288 16 -16 180 133 502 458 380 383 599 624
757 829 99 128 169 212 173 207 2 -2 -17 -62 -42 -133 -85 -240 -116 -410
-135 -732 -15 -267 -10 -297 79 -427 101 -146 98 -138 60 -175 -44 -41 -203
-146 -313 -206 -123 -67 -188 -134 -254 -263 -92 -179 -118 -196 -415 -271
-204 -52 -306 -69 -306 -52 0 11 -5 9 165 69 131 45 242 97 281 130 30 26 51
62 58 105 7 38 35 67 94 100 17 9 40 34 50 55 20 39 57 71 209 183 142 105 99
98 -85 -14 -167 -101 -342 -190 -327 -166 3 5 101 73 218 151 258 172 353 242
339 247 -16 5 -101 -41 -292 -158 -319 -196 -582 -337 -700 -375 -92 -29 -206
-94 -359 -203 -141 -100 -209 -142 -231 -142 -5 0 -10 9 -10 21 0 52 422 396
660 538 47 27 112 67 145 88 57 35 58 38 32 41 -35 4 -96 -16 -271 -90 -77
-32 -141 -57 -142 -55 -11 11 207 182 356 281 142 93 153 102 148 116 -9 28
-320 -165 -581 -358 -73 -54 -193 -149 -267 -211 -138 -116 -220 -177 -220
-165 0 16 68 89 182 192 124 113 185 179 174 189 -7 7 -88 -51 -191 -137 -98
-82 -184 -140 -206 -140 -21 0 -29 20 -29 74 0 50 0 49 162 244 157 190 231
297 312 454 35 67 84 150 110 184 25 34 46 67 46 72 0 14 271 276 490 473 257
231 463 409 695 601 253 209 273 227 254 228 -9 0 -206 -130 -438 -290 -732
-503 -991 -693 -1434 -1054 -73 -60 -84 -65 -93 -41 -18 47 53 127 241 269
359 270 1285 1000 1285 1012 0 26 -531 -361 -1249 -909 -156 -120 -285 -216
-287 -214 -2 1 6 57 16 122 11 66 20 134 20 151 0 43 31 78 97 109 239 114
619 428 857 710 55 66 175 196 264 288 90 93 162 171 159 173 -9 9 -179 -99
-677 -430 -272 -181 -510 -335 -528 -343 -43 -18 -53 -10 -93 71 -17 34 -48
88 -69 121 -21 33 -41 76 -45 96 -10 54 17 188 94 464 92 333 112 428 118 565
6 133 -3 155 -58 155 -79 0 -34 69 196 300 154 155 220 213 232 201 10 -10
-12 -174 -57 -416 -40 -214 -49 -320 -30 -320 25 0 68 185 110 480 17 117 35
231 40 251 23 86 82 153 549 631 52 54 93 99 90 102 -2 2 -83 -65 -179 -151
-238 -210 -408 -353 -422 -353 -8 0 -9 36 -2 138 5 75 9 273 9 439 0 166 4
305 8 310 13 12 113 6 203 -12 118 -24 244 -62 388 -116 129 -49 156 -56 156
-41 0 42 -279 142 -564 203 -148 32 -161 36 -189 67 -20 22 -53 182 -43 208 6
15 19 16 119 10 61 -3 153 -15 202 -26 50 -10 126 -27 170 -36 96 -21 135 -15
135 21 0 49 -91 79 -284 95 -106 8 -350 -1 -363 -14 -2 -2 2 -263 9 -580 l12
-577 -130 -132 c-71 -73 -165 -170 -209 -216 l-80 -84 75 62 c131 108 270 211
286 211 13 0 12 -5 -5 -29 -28 -39 -254 -255 -362 -346 -148 -124 -175 -135
-113 -45 20 29 42 67 49 84 19 44 34 165 45 366 6 96 15 230 22 298 14 146 7
204 -52 393 -46 151 -60 242 -60 392 0 156 18 423 37 542 20 131 20 137 5 142
-21 8 -43 -65 -73 -239 -33 -193 -47 -235 -81 -240 -36 -5 -44 -66 -30 -217
16 -164 36 -256 80 -366 l37 -90 -1 -210 c0 -136 -10 -323 -28 -530 l-27 -320
-108 -110 c-124 -127 -201 -213 -201 -226 0 -5 9 -9 20 -9 30 0 25 -13 -34
-82 -62 -72 -144 -143 -154 -133 -6 6 5 51 60 250 11 39 23 127 28 196 8 124
14 148 57 207 l16 24 -35 -7 c-32 -6 -38 -3 -57 24 -91 127 -171 634 -216
1371 -24 385 -35 415 -30 80 8 -490 58 -983 131 -1294 19 -81 36 -174 37 -205
2 -53 1 -56 -24 -59 -30 -4 -46 12 -51 51 -1 15 -7 29 -13 30 -15 3 -24 -66
-24 -191 -1 -210 -42 -462 -102 -628 -36 -99 -90 -167 -135 -170 -16 -1 -32
-3 -36 -3 -13 -2 -161 -124 -292 -241 -281 -250 -388 -332 -408 -312 -20 20
-27 103 -38 405 -11 328 -23 454 -46 503 -20 43 -60 60 -202 90 -170 36 -242
61 -242 85 0 58 112 209 186 251 67 38 90 65 103 129 34 155 -26 338 -157 482
-73 80 -112 145 -112 188 0 54 -21 96 -75 148 -30 30 -58 66 -61 80 -13 64
-38 113 -85 166 -71 81 -89 122 -100 228 -11 117 -26 171 -55 202 -28 31 -60
23 -87 -22 -18 -32 -36 -143 -37 -233 0 -78 -8 -97 -46 -121 -69 -42 -116
-140 -135 -278 -12 -83 -3 -127 28 -138 58 -20 221 -181 207 -204 -3 -5 -17
-9 -32 -9 -15 0 -54 -12 -87 -26 -33 -15 -72 -28 -86 -31 -54 -10 -129 57
-129 116 0 30 -33 84 -65 105 -37 24 -31 52 25 113 72 79 65 98 -16 43 -54
-38 -74 -75 -84 -159 -7 -56 -13 -69 -39 -91 -43 -35 -40 -50 10 -50 54 0 75
-13 99 -60 22 -43 27 -129 8 -148 -7 -7 -27 -9 -55 -5 -40 5 -47 3 -79 -28
-48 -46 -61 -95 -40 -141 9 -19 30 -45 46 -57 47 -34 78 -88 135 -238 58 -150
57 -164 -10 -123 -43 26 -75 66 -75 92 0 12 -30 49 -69 87 -38 36 -74 77 -81
91 -47 91 -53 257 -15 395 30 108 32 148 9 143 -56 -11 -88 -132 -88 -338 -1
-190 5 -207 122 -333 97 -105 107 -137 43 -137 -22 0 -70 7 -108 16 -253 59
-363 -34 -960 -806 l-113 -145 -192 -48 c-106 -25 -222 -51 -257 -57 -96 -17
-119 1 -45 36 52 25 171 134 454 413 239 237 350 343 648 619 67 63 127 123
134 135 11 21 11 21 -18 3 -51 -33 -154 -116 -314 -251 -85 -73 -184 -153
-219 -178 -118 -87 -111 -62 40 136 67 87 119 160 117 163 -11 10 -507 -509
-670 -702 -78 -93 -141 -154 -158 -154 -64 0 175 364 604 920 270 351 432 551
746 920 239 281 274 329 188 255 -113 -95 -572 -625 -925 -1065 -135 -169
-209 -267 -398 -528 -49 -68 -91 -119 -92 -115 -2 5 37 135 87 289 136 416
188 649 211 934 12 163 1 359 -31 509 -27 128 -108 368 -135 399 -27 32 -42
23 -70 -38 -18 -40 -35 -53 -35 -26 0 25 40 144 116 343 86 225 137 394 155
510 31 202 -37 171 -156 -72 -76 -154 -120 -282 -135 -395 -22 -159 -78 -298
-347 -860 -290 -603 -403 -855 -403 -893 0 -20 38 41 97 158 76 152 144 265
159 265 16 0 3 -48 -25 -94 -28 -45 -83 -190 -124 -326 -65 -218 -56 -237 29
-65 32 63 59 114 60 112 2 -2 -1 -34 -7 -71 -5 -38 -7 -71 -5 -73 14 -15 104
213 222 560 75 221 108 297 132 305 18 6 15 -24 -14 -134 -95 -366 -177 -922
-209 -1419 -22 -343 -41 -485 -65 -485 -5 0 -18 17 -29 38 -25 49 -143 349
-170 434 -16 48 -32 76 -57 98 -61 53 -70 34 -27 -54 15 -31 23 -59 19 -63 -5
-4 -41 28 -82 72 -41 44 -74 75 -74 69 0 -7 7 -31 16 -55 9 -25 19 -99 23
-169 8 -133 14 -154 76 -241 114 -160 64 -152 -59 9 -79 104 -234 260 -285
286 -64 33 -33 -10 129 -179 95 -99 140 -155 140 -175 0 -18 -57 -5 -173 41
-266 106 -689 162 -867 115 -141 -38 -379 -144 -388 -175 -6 -17 16 -10 122
36 44 19 107 41 140 49 83 20 412 29 547 16 126 -13 192 -36 424 -144 231
-109 417 -184 493 -198 34 -7 62 -15 62 -18 0 -3 -46 -53 -103 -111 -114 -118
-160 -183 -217 -304 -75 -160 -106 -335 -97 -547 7 -158 29 -258 86 -375 51
-106 111 -184 260 -338 68 -70 117 -127 109 -127 -41 0 -211 123 -388 281
-124 111 -230 193 -238 184 -3 -2 8 -23 24 -46 25 -37 29 -50 27 -107 -1 -36
3 -75 9 -86 6 -12 39 -51 74 -88 35 -36 64 -71 64 -78 0 -36 -194 37 -459 172
-117 60 -218 107 -224 105 -12 -4 67 -65 213 -165 129 -88 156 -109 150 -116
-3 -3 -47 15 -97 39 -109 52 -133 60 -133 46 0 -38 238 -234 355 -293 77 -38
78 -39 36 -33 -85 11 -371 130 -638 263 -133 67 -164 85 -297 166 -114 69
-113 34 1 -45 183 -126 598 -340 783 -404 58 -20 110 -41 115 -47 19 -20 -97
1 -235 43 -340 104 -407 114 -210 31 69 -30 130 -58 135 -64 15 -16 -60 -3
-190 33 -320 88 -1016 430 -1252 615 -171 135 -196 154 -200 150 -2 -2 2 -19
10 -38 26 -61 132 -163 260 -249 131 -88 222 -161 238 -191 10 -18 8 -19 -35
-13 -37 6 -46 4 -46 -7 0 -36 216 -257 370 -378 86 -67 230 -129 550 -235 162
-54 298 -100 302 -104 4 -3 -189 -5 -427 -3 -266 2 -435 0 -435 -6 0 -16 86
-47 263 -98 l168 -47 -73 -40 c-107 -59 -178 -87 -223 -87 -101 0 -212 87
-580 461 -599 609 -698 753 -712 1044 -9 187 16 305 127 591 107 274 135 394
211 899 83 557 171 1043 283 1565 119 557 193 844 296 1150 84 249 100 312
100 412 0 87 -11 121 -76 236 -56 98 -94 213 -101 305 -6 85 3 109 71 186 128
144 265 373 516 861 180 352 315 583 502 864 512 765 701 940 1198 1106 494
165 1758 404 1916 361 90 -24 73 -64 -58 -131 -98 -51 -148 -86 -288 -203
-278 -234 -610 -566 -610 -610 0 -15 54 31 235 198 216 201 379 339 540 457
194 143 266 201 293 236 22 28 24 38 18 85 -4 28 -14 110 -22 181 -18 166 -37
209 -100 238 -64 28 -127 20 -229 -31 -95 -47 -171 -104 -322 -239 -115 -104
-160 -138 -168 -130 -7 6 127 200 184 267 145 171 342 270 511 257 272 -21
296 -20 356 9 31 15 66 28 77 29 14 1 23 11 29 31 14 53 20 169 10 195 l-9 24
-12 -22 c-7 -12 -15 -45 -18 -73 -3 -28 -14 -60 -24 -72 l-17 -22 -7 28 c-11
40 22 214 50 272 13 28 41 63 61 79 54 43 135 86 163 86 22 0 23 -3 19 -50z
m161 -159 c33 -58 77 -147 97 -199 29 -74 48 -106 91 -153 53 -56 119 -106
129 -97 2 3 0 17 -6 32 -20 52 -9 50 45 -8 45 -48 315 -417 379 -518 15 -24
-20 -9 -256 106 -434 212 -589 301 -603 345 -3 11 3 120 15 242 11 123 23 257
26 297 4 41 10 70 14 65 4 -4 35 -55 69 -112z m-755 -560 c10 -16 -52 -59
-107 -75 -63 -18 -102 -46 -111 -79 -6 -27 -43 -47 -85 -47 -35 0 -112 -26
-215 -74 -43 -20 -90 -36 -105 -36 -25 1 -24 2 21 44 141 130 570 320 602 267z
m-14 -188 c24 -23 -13 -43 -81 -43 -57 0 -97 19 -84 41 19 29 136 31 165 2z
m9337 -464 c48 -18 102 -60 144 -112 21 -27 39 -54 39 -58 0 -18 -71 -87 -106
-104 -52 -24 -93 -13 -154 42 -96 87 -110 154 -44 213 37 32 72 38 121 19z
m-457 -170 c14 -26 -4 -51 -34 -47 -21 3 -32 28 -22 54 8 21 44 17 56 -7z
m319 -83 l91 -88 -89 -93 c-155 -162 -328 -378 -788 -980 -176 -231 -331 -429
-343 -440 l-22 -20 -54 58 c-71 76 -70 92 2 199 226 332 1085 1462 1106 1455
4 -1 48 -42 97 -91z m-69 -629 c0 -32 -46 -96 -308 -432 -351 -448 -500 -632
-574 -709 -40 -40 -68 -78 -68 -90 0 -26 -35 -100 -84 -181 -27 -45 -36 -69
-34 -95 3 -34 5 -35 47 -38 40 -3 52 -10 111 -70 75 -76 170 -213 170 -245 0
-11 -44 -102 -99 -201 -128 -234 -186 -350 -202 -406 -7 -25 -16 -50 -21 -57
-5 -6 -40 -19 -78 -28 -98 -24 -139 -54 -275 -201 -195 -210 -241 -252 -286
-264 -22 -6 -50 -22 -61 -36 -27 -31 -38 -31 -38 1 0 14 -4 25 -9 25 -15 0
-41 -168 -41 -260 0 -130 21 -185 58 -148 17 17 21 9 28 -71 5 -46 13 -80 25
-94 16 -21 18 -21 37 -4 10 10 27 35 37 57 21 47 47 58 80 36 34 -22 31 -47
-11 -97 -19 -23 -42 -55 -50 -71 -13 -25 -13 -28 2 -28 10 0 32 11 51 26 41
31 42 24 1 -27 -48 -59 -63 -54 -167 59 -127 137 -197 227 -233 299 -33 67
-34 109 -8 228 19 89 -10 268 -81 495 -52 166 -57 216 -30 370 11 69 21 155
20 191 -1 37 5 77 12 90 7 13 62 92 124 174 61 83 207 287 324 455 249 357
312 437 347 446 34 9 72 -20 102 -79 19 -36 22 -49 13 -66 -7 -12 -22 -21 -34
-21 -80 0 -104 -95 -60 -233 24 -77 114 -158 127 -114 3 6 7 24 10 38 7 34 64
117 136 199 131 150 554 682 770 970 105 140 186 230 206 230 8 0 14 -10 14
-23z m-2192 -2562 c23 -29 90 -225 99 -291 8 -62 -1 -56 -88 62 -82 112 -130
149 -210 165 -32 6 -67 17 -76 25 -17 12 -16 13 9 23 44 17 159 39 205 40 33
1 46 -4 61 -24z m1389 -37 c103 -95 99 -330 -6 -392 -17 -10 -70 -27 -118 -37
-99 -22 -149 -48 -236 -126 -67 -61 -143 -113 -164 -113 -26 0 -12 47 32 115
25 38 48 79 51 91 15 60 -55 160 -132 190 -24 9 -44 23 -44 30 0 21 143 167
205 210 34 23 67 37 85 37 60 0 201 -126 173 -154 -7 -7 -27 5 -63 35 -50 43
-90 59 -90 36 0 -20 67 -84 107 -102 43 -19 106 -17 118 3 3 4 -6 32 -21 60
-32 65 -36 116 -9 136 27 19 81 10 112 -19z m-1500 -124 c15 -11 44 -42 63
-69 19 -26 59 -77 88 -112 30 -35 60 -80 68 -99 12 -28 44 -161 44 -181 0 -9
-270 7 -312 18 -39 10 -40 11 -52 87 -3 19 -31 93 -62 167 -61 145 -65 181
-24 203 38 20 153 11 187 -14z m1787 -39 c37 -38 31 -144 -9 -171 -33 -22
-105 -31 -115 -14 -18 29 31 156 72 184 28 20 33 20 52 1z m-871 -166 c33 -17
98 -81 108 -106 12 -32 -2 -61 -57 -115 -90 -90 -175 -99 -246 -28 -53 53 -51
78 15 144 54 55 133 116 149 116 5 0 19 -5 31 -11z m-4794 -332 c31 -72 122
-358 118 -370 -13 -41 -157 319 -157 395 0 32 20 19 39 -25z m4003 6 c20 -12
63 -63 109 -132 42 -62 98 -134 125 -160 27 -27 78 -97 113 -157 81 -136 136
-196 216 -234 81 -39 102 -62 87 -95 -32 -70 -151 -87 -257 -36 -33 15 -82 47
-110 70 -27 22 -58 41 -68 41 -18 0 -18 -1 0 -31 10 -17 46 -55 80 -83 34 -28
62 -57 62 -63 2 -31 -149 1 -252 53 -138 70 -186 177 -187 417 0 42 -4 77 -8
77 -4 0 -26 -21 -47 -47 l-40 -48 -10 75 c-8 57 -14 76 -27 78 -31 6 -43 -63
-29 -167 15 -107 9 -124 -55 -152 -24 -11 -52 -31 -61 -45 -13 -21 -23 -25
-52 -22 l-36 3 3 -40 c4 -56 -5 -83 -29 -90 -63 -20 66 -22 218 -4 92 11 93
11 150 -17 33 -17 90 -61 134 -104 80 -79 94 -108 83 -172 -17 -99 -26 -138
-34 -138 -4 0 -26 25 -49 55 -74 98 -100 66 -65 -82 11 -48 14 -90 10 -143 -5
-65 -3 -81 15 -115 21 -39 21 -39 1 -55 -11 -8 -28 -20 -38 -26 -14 -9 -19
-23 -19 -60 l0 -49 -43 -6 c-46 -6 -58 -14 -64 -43 -2 -15 -16 -23 -53 -31
-38 -8 -50 -15 -49 -28 2 -23 -32 -45 -96 -62 -51 -14 -80 -30 -80 -46 0 -12
68 -45 110 -54 58 -12 100 -36 100 -56 0 -12 11 -24 27 -30 57 -21 140 32 270
172 l70 76 6 -216 c7 -229 23 -376 55 -506 41 -167 42 -166 -78 -201 -115 -33
-136 -32 -176 11 -29 33 -35 35 -86 32 -57 -2 -88 12 -88 41 0 8 7 20 15 26
13 10 61 243 52 253 -2 2 -23 -45 -46 -104 -63 -162 -68 -173 -98 -184 -34
-13 -88 1 -146 38 -22 14 -84 71 -139 126 -93 96 -99 104 -94 137 2 19 21 125
41 235 49 263 47 326 -19 540 -96 307 -122 460 -132 762 l-7 202 190 203 c239
255 377 388 434 417 53 27 139 24 191 -6z m1421 -21 c74 -37 122 -87 138 -145
15 -55 -4 -85 -76 -124 -66 -36 -202 -83 -240 -83 -30 0 -143 -58 -205 -106
-26 -20 -54 -51 -63 -69 -32 -68 -168 -195 -207 -195 -6 0 -37 24 -68 54 -31
29 -76 65 -100 80 -38 24 -41 29 -31 49 20 39 92 106 125 117 40 14 82 -5 113
-49 26 -37 26 -61 1 -94 -24 -30 -26 -57 -4 -57 23 0 94 74 94 98 0 28 -70
114 -115 142 -30 19 -46 22 -90 17 -29 -3 -56 -3 -59 0 -21 21 152 210 254
278 136 90 248 126 381 122 74 -3 96 -8 152 -35z m-7913 -127 l-7 -40 -7 38
c-5 20 -5 58 0 85 l7 47 8 -45 c3 -25 3 -63 -1 -85z m63 -166 c77 -51 137
-141 137 -207 0 -68 -109 -175 -192 -189 -46 -7 -101 22 -160 84 -58 63 -78
102 -78 153 0 53 20 90 69 129 91 72 149 80 224 30z m7933 -79 c53 -26 139
-117 165 -174 25 -57 17 -95 -29 -141 -61 -61 -101 -32 -126 89 -22 104 -77
151 -167 144 l-44 -4 35 -16 c66 -31 124 -110 149 -204 14 -52 8 -68 -34 -94
-19 -12 -100 -70 -181 -131 -80 -60 -148 -108 -151 -106 -2 2 4 18 14 36 18
30 18 31 -11 86 -34 65 -87 115 -122 115 -14 0 -39 -7 -55 -16 -42 -21 -109
-83 -109 -100 0 -20 10 -17 54 16 52 40 115 42 151 5 14 -13 25 -36 25 -50 0
-56 -59 -153 -114 -186 -36 -22 -70 -12 -141 41 -57 42 -80 78 -72 112 15 57
280 321 486 483 146 114 198 133 277 95z m-5385 -440 c-6 -74 -16 -173 -23
-220 -12 -81 -13 -83 -20 -45 -13 72 17 502 44 639 8 41 7 -265 -1 -374z
m3004 188 c-27 -379 -14 -509 84 -883 24 -88 45 -193 48 -232 6 -71 5 -75 -29
-125 -19 -29 -67 -87 -107 -128 l-71 -75 6 63 7 62 -32 -6 c-42 -9 -41 12 4
66 58 69 42 92 -29 44 -44 -30 -40 -20 19 51 23 28 48 61 55 74 11 22 11 23
-13 17 -14 -3 -32 -9 -41 -12 -26 -10 -20 23 28 141 49 124 61 165 47 165 -16
0 -55 -53 -160 -217 -112 -175 -129 -199 -136 -192 -2 3 9 69 25 147 36 173
64 371 85 602 18 195 36 288 66 339 22 37 130 160 141 161 4 0 5 -28 3 -62z
m2815 -58 c75 -38 119 -143 87 -206 -22 -42 -109 -121 -202 -184 -149 -101
-405 -220 -472 -220 -37 0 -94 34 -148 89 l-49 51 69 71 c138 140 314 269 491
360 126 65 161 71 224 39z m-4332 -319 c98 -50 145 -204 99 -323 -35 -91 -145
-159 -234 -143 -84 14 -193 102 -222 178 -29 75 7 177 86 247 80 70 183 86
271 41z m3096 -71 c47 -72 100 -118 176 -153 35 -16 67 -21 140 -21 l94 -1 8
-43 c9 -53 32 -93 69 -118 55 -37 49 -54 -59 -163 -71 -72 -124 -106 -149 -96
-13 5 -15 19 -9 95 4 52 3 90 -2 90 -5 0 -26 -14 -47 -30 -21 -17 -40 -28 -42
-26 -2 2 9 31 26 65 33 64 39 95 19 89 -11 -4 -34 -32 -127 -158 -31 -42 -34
-15 -6 48 35 77 25 102 -38 102 -23 -1 -53 -7 -67 -15 -72 -41 -75 -5 -10 96
23 36 40 74 40 91 0 15 -18 68 -40 117 -61 135 -51 148 24 31z m-128 18 c54
-70 76 -114 72 -146 -3 -23 -9 -28 -43 -32 l-40 -5 3 -42 c3 -35 0 -44 -22
-58 -42 -28 -56 -7 -56 80 0 91 8 99 78 81 62 -17 68 -5 22 39 -35 33 -71 35
-127 7 -43 -22 -73 -53 -96 -97 l-16 -30 -1 31 c0 41 48 111 118 174 31 28 59
50 62 50 3 0 24 -24 46 -52z m-247 29 c8 -10 5 -33 -10 -87 -25 -87 -22 -166
9 -226 24 -46 43 -65 99 -93 23 -11 44 -25 48 -31 3 -5 -6 -38 -20 -73 -29
-74 -34 -117 -10 -97 8 7 37 49 63 93 26 43 53 82 60 84 26 11 26 -9 -2 -59
-16 -27 -35 -73 -42 -102 -35 -133 9 -424 67 -439 25 -7 25 -63 -1 -223 -31
-194 -55 -240 -100 -199 -66 60 -225 512 -272 775 -17 95 -21 161 -22 376 -1
242 0 263 18 282 10 12 32 23 50 25 17 2 36 5 42 5 6 1 16 -4 23 -11z m-7056
-32 c55 -42 117 -120 117 -147 0 -10 -10 -36 -22 -56 -25 -45 -20 -91 15 -143
31 -47 77 -66 187 -78 106 -12 139 -29 152 -79 20 -75 -24 -140 -127 -188 -62
-29 -100 -30 -212 -4 -116 27 -128 37 -149 110 -10 35 -42 100 -75 152 -74
115 -94 172 -93 268 1 174 96 250 207 165z m2787 -205 c0 -21 -4 -42 -10 -45
-6 -4 -10 13 -10 45 0 32 4 49 10 45 6 -3 10 -24 10 -45z m-2569 -31 c30 -30
22 -63 -18 -67 -25 -2 -35 2 -48 22 -34 51 22 89 66 45z m2029 -128 c15 -29
12 -208 -6 -302 -20 -110 -40 -178 -76 -266 -53 -130 -62 -89 -24 119 27 145
41 245 51 353 11 106 30 141 55 96z m440 -121 c0 -15 -119 -137 -156 -160 -34
-22 -54 -20 -54 5 0 18 72 88 135 131 50 34 75 42 75 24z m5203 -130 c-9 -16
-60 -87 -111 -157 -242 -328 -397 -590 -468 -793 l-23 -65 0 55 c-1 95 34 195
133 375 102 186 211 336 374 513 94 102 129 128 95 72z m-5123 -30 c13 -49 3
-129 -40 -322 -16 -74 -30 -146 -30 -159 1 -24 1 -24 15 3 8 15 40 114 71 220
31 106 58 195 61 198 3 3 3 -23 -1 -58 -8 -80 -61 -303 -121 -502 -78 -259
-97 -353 -93 -445 3 -74 6 -87 39 -136 59 -89 81 -139 86 -199 9 -91 -27 -136
-47 -60 -5 22 -15 59 -21 83 -14 55 -42 100 -102 164 -44 47 -49 57 -49 95 1
50 59 248 107 363 18 44 36 96 40 115 6 31 5 33 -8 20 -40 -39 -197 -458 -197
-525 0 -32 47 -96 97 -134 25 -18 51 -48 59 -67 18 -43 19 -213 2 -236 -7 -9
-47 -34 -88 -55 -41 -21 -138 -80 -215 -129 -166 -108 -204 -129 -216 -117
-11 11 2 86 42 247 29 116 30 121 14 162 -11 29 -46 71 -110 133 l-93 90 63
356 c59 338 64 358 91 387 62 65 492 473 537 510 65 51 93 51 107 -2z m-3144
-40 c84 -21 178 -49 208 -63 52 -24 56 -28 70 -79 9 -29 20 -82 25 -118 15
-99 34 -330 28 -336 -3 -3 -29 7 -58 21 -73 38 -121 53 -198 66 -44 7 -91 24
-140 50 -45 25 -77 37 -82 32 -25 -25 51 -123 144 -187 29 -20 102 -58 164
-85 146 -64 166 -79 189 -143 17 -48 24 -55 78 -83 56 -28 67 -30 170 -30 96
0 117 3 158 23 38 19 51 33 69 73 13 27 28 49 35 49 20 0 63 -58 71 -98 10
-48 10 -137 0 -184 -6 -27 -16 -42 -36 -53 -37 -19 -178 -41 -386 -61 -271
-25 -420 -55 -466 -94 -20 -17 -22 -21 -9 -29 27 -18 120 -24 299 -18 206 6
265 16 373 63 56 25 87 34 107 29 82 -18 147 -176 127 -310 -10 -62 -52 -108
-124 -136 -68 -25 -211 -49 -302 -49 -126 0 -336 -59 -348 -97 -9 -31 299 -22
498 15 52 9 128 17 168 17 72 0 74 -1 107 -37 41 -45 69 -131 59 -184 -15 -79
-101 -137 -256 -174 -96 -22 -628 -90 -709 -90 -98 0 -144 45 -160 157 -13 91
-25 119 -44 103 -8 -6 -19 -28 -26 -48 -18 -58 -24 -61 -107 -60 -56 0 -94 -6
-137 -21 -173 -63 -173 -63 -290 -57 -60 3 -123 8 -140 11 -42 7 86 -54 150
-71 72 -20 128 -17 259 11 137 30 159 30 211 6 39 -18 149 -100 143 -107 -7
-6 -247 -64 -313 -74 -114 -19 -297 -14 -390 10 -208 53 -369 182 -498 401
-90 153 -144 311 -168 496 -15 111 -6 174 40 284 43 102 94 167 166 209 84 49
155 124 264 280 216 309 499 648 625 747 108 85 131 87 382 23z m708 -532 c38
-72 7 -83 -195 -73 l-139 7 0 212 1 211 157 -160 c86 -89 166 -177 176 -197z
m325 114 c14 -47 14 -126 1 -174 -17 -60 -99 -110 -136 -83 -15 11 -16 19 -6
71 6 32 14 86 18 119 6 61 23 105 53 138 15 18 16 18 38 -7 12 -14 27 -43 32
-64z m5306 -70 c80 -278 180 -414 367 -502 85 -40 214 -66 398 -80 190 -14
270 -28 270 -47 0 -21 -74 -50 -171 -67 -211 -36 -439 -29 -584 19 -43 14 -89
25 -103 25 l-25 0 23 -25 c46 -49 267 -119 475 -149 127 -19 177 -33 173 -49
-2 -7 -56 -38 -121 -69 -166 -81 -160 -98 36 -98 152 0 261 17 407 64 62 20
115 35 118 32 13 -14 -83 -87 -281 -216 l-99 -63 -268 18 c-274 18 -362 17
-383 -4 -15 -16 25 -51 58 -51 12 0 28 -7 35 -15 23 -28 1 -37 -83 -33 -54 2
-81 -1 -84 -9 -7 -18 54 -80 140 -141 l79 -57 -52 -23 c-29 -12 -71 -27 -94
-32 -211 -47 -422 -116 -472 -155 -19 -15 -19 -15 1 -30 46 -36 248 -81 430
-96 206 -17 230 -29 242 -118 5 -34 2 -44 -18 -61 -13 -12 -142 -82 -285 -156
l-262 -134 -211 140 c-344 228 -353 240 -359 481 -3 101 2 207 12 302 25 229
20 292 -18 218 -32 -60 -56 -224 -67 -446 -11 -233 -19 -300 -34 -299 -6 0
-31 27 -58 59 -64 80 -71 83 -107 43 -34 -37 -35 -36 -15 41 8 31 19 99 25
151 7 61 19 113 35 147 32 66 32 93 3 93 -12 0 -69 -16 -126 -36 -161 -55
-163 -30 -9 138 124 137 182 207 306 368 114 148 190 232 203 224 4 -3 8 -60
8 -127 0 -137 17 -232 55 -315 27 -59 70 -112 90 -112 20 0 43 33 54 78 7 23
17 42 24 42 6 0 28 -19 49 -42 l37 -43 -24 75 c-14 41 -24 79 -22 84 2 5 24
-27 50 -71 52 -89 111 -162 122 -151 4 4 -5 33 -21 65 -16 32 -31 62 -33 68
-2 5 31 -23 74 -63 77 -71 95 -82 95 -62 0 14 -20 45 -103 160 -82 113 -155
257 -163 323 -10 74 14 60 84 -47 91 -139 262 -307 262 -257 0 5 -40 59 -88
119 -159 200 -261 417 -222 472 9 13 17 8 48 -26 21 -23 58 -79 82 -125 49
-90 76 -129 91 -129 12 0 9 25 -38 355 -39 277 -47 463 -24 528 8 23 17 35 22
30 5 -5 25 -64 44 -131z m-315 52 c0 -6 -84 -127 -194 -279 -65 -89 -80 -130
-51 -141 13 -5 147 9 210 22 11 2 -14 -13 -55 -33 -64 -31 -87 -37 -162 -41
-60 -3 -88 -8 -88 -17 0 -21 -33 -43 -109 -75 -41 -16 -78 -30 -83 -30 -34 0
105 169 370 448 129 136 162 166 162 146z m-3660 -425 c-77 -377 -73 -433 27
-481 76 -37 88 -62 87 -181 0 -83 -7 -130 -37 -252 -39 -155 -54 -185 -93
-185 -33 0 -38 15 -35 96 2 76 -9 98 -36 71 -10 -9 -19 -47 -24 -101 -5 -50
-16 -97 -25 -111 -24 -36 -214 -130 -247 -121 -38 9 -112 69 -112 90 0 22 15
32 71 46 50 12 64 38 64 118 0 121 -81 324 -204 513 -116 176 -118 184 -48
250 161 155 517 449 544 449 23 0 23 6 -12 -130 -36 -136 -37 -148 -14 -129
23 19 49 84 91 224 19 66 38 125 42 130 20 31 6 -73 -39 -296z m-960 79 c1
-206 12 -331 40 -452 25 -107 20 -140 -23 -167 -40 -24 -125 -25 -190 -3 -66
22 -144 95 -158 147 -26 98 34 299 134 447 34 50 176 200 189 200 4 0 8 -78 8
-172z m-3163 -133 c5 -15 -36 -57 -48 -50 -13 9 -11 39 3 53 14 14 40 12 45
-3z m408 -86 c-89 -95 -140 -176 -170 -271 -95 -301 -27 -662 182 -974 66 -98
115 -185 108 -192 -9 -9 -82 53 -185 157 -229 233 -310 471 -276 814 5 55 5
87 -1 87 -17 0 -43 -71 -52 -144 -7 -45 -17 -76 -30 -90 -44 -47 -52 -129 -26
-278 21 -122 68 -249 131 -354 85 -142 68 -173 -24 -43 -159 225 -184 250
-227 231 -14 -7 -28 -19 -32 -27 -3 -9 17 -60 46 -118 28 -56 51 -108 51 -114
0 -49 -95 40 -139 128 -45 94 -61 168 -61 291 0 108 -11 142 -30 93 -13 -34
-13 -202 1 -285 5 -36 19 -93 29 -128 11 -35 25 -105 31 -155 14 -114 37 -164
105 -226 65 -60 130 -98 246 -145 126 -50 133 -55 76 -56 -93 0 -327 105 -467
210 -198 150 -295 357 -308 661 -7 173 7 234 92 407 123 247 258 361 555 469
70 26 407 120 439 123 2 0 -27 -32 -64 -71z m4305 -906 c0 -80 -78 -385 -102
-399 -16 -10 -27 9 -38 66 -11 60 -40 122 -58 128 -9 3 -11 -14 -6 -66 9 -96
-8 -163 -55 -212 -87 -92 -174 -54 -186 80 l-5 65 16 -35 c9 -19 20 -46 25
-59 15 -38 17 -21 8 49 -13 87 -5 117 37 142 43 25 59 52 40 67 -11 9 -23 4
-56 -21 -86 -66 -150 -197 -135 -276 9 -52 42 -106 75 -125 63 -38 137 -13
248 83 88 75 103 72 84 -16 -13 -65 -23 -76 -206 -252 -71 -68 -132 -120 -136
-115 -4 4 -15 38 -24 75 -10 36 -38 108 -62 160 -50 105 -53 133 -29 269 23
129 51 228 72 251 52 57 359 176 461 177 31 1 32 -1 32 -36z m68 -16 c-2 -12
-7 -22 -13 -22 -12 0 -19 41 -10 63 6 16 7 16 16 -1 6 -10 9 -28 7 -40z m-38
-212 c0 -25 -4 -45 -10 -45 -5 0 -10 20 -10 45 0 25 5 45 10 45 6 0 10 -20 10
-45z m-633 -52 c-6 -82 -21 -139 -42 -161 -10 -12 -17 -11 -43 2 -73 38 -129
108 -117 146 5 16 16 20 51 20 49 0 89 16 118 49 33 37 39 26 33 -56z m663
-106 c0 -19 -52 -98 -84 -127 -33 -30 -49 -15 -35 33 17 59 119 139 119 94z
m4010 -308 c0 -6 -29 -40 -64 -74 -51 -51 -89 -75 -197 -129 -133 -65 -214
-92 -225 -75 -11 18 -61 8 -133 -26 -95 -46 -116 -46 -131 0 -15 44 -1 65 42
65 34 0 147 42 438 164 192 80 270 101 270 75z m-8412 -218 c11 -7 10 -10 -3
-15 -25 -9 -73 -7 -79 3 -12 18 57 28 82 12z m7983 -170 c-19 -35 -121 -81
-121 -54 0 24 72 72 108 73 19 0 21 -3 13 -19z m73 -150 c9 -14 -42 -31 -94
-31 -48 0 -67 10 -55 30 8 12 142 13 149 1z m-8802 -92 c73 -15 79 -26 20 -34
-53 -7 -129 1 -153 16 -12 8 -12 10 1 19 20 13 67 13 132 -1z m5029 -95 c-51
-108 -178 -270 -197 -251 -16 16 74 171 165 285 59 74 75 57 32 -34z m1089
-272 c0 -5 -44 -31 -97 -58 -64 -32 -114 -65 -145 -96 l-47 -48 -55 27 c-42
20 -59 24 -67 16 -7 -7 -17 -54 -23 -105 l-12 -93 -32 103 c-33 104 -52 129
-52 68 0 -19 -3 -42 -6 -51 -6 -14 -10 -13 -29 11 -29 37 -51 27 -58 -28 -8
-59 -66 -112 -141 -128 -98 -20 -150 18 -225 169 -18 34 -30 66 -27 69 4 3 61
12 129 19 124 13 265 36 617 97 199 35 270 43 270 28z m-4706 -113 c31 -25 33
-53 5 -98 -32 -52 -49 -153 -49 -291 0 -69 -4 -131 -8 -138 -11 -16 -304 78
-346 111 -35 29 -28 47 19 47 37 0 57 21 69 72 6 28 31 58 48 58 6 0 7 -15 2
-42 -13 -76 -6 -100 24 -82 9 6 21 30 25 53 8 42 9 42 28 25 13 -11 23 -14 29
-8 6 6 19 60 30 121 34 191 58 224 124 172z m149 -120 c52 -27 127 -93 142
-126 17 -34 16 -41 0 -120 -31 -148 -60 -155 -152 -41 l-57 70 -28 -56 c-16
-31 -31 -56 -35 -56 -8 0 6 182 19 245 18 89 52 114 111 84z m-939 -22 c-4 -7
-16 -24 -26 -39 -10 -14 -18 -42 -18 -62 0 -53 54 -107 229 -226 80 -55 157
-109 171 -120 95 -76 -215 74 -375 181 -100 66 -145 108 -145 133 0 24 65 100
108 127 43 27 70 30 56 6z m4991 -122 c0 -35 -31 -47 -51 -20 -18 25 0 57 29
53 17 -2 22 -10 22 -33z m1288 -64 c-39 -33 -41 -41 -9 -41 51 0 114 -110 139
-242 6 -32 7 -61 4 -65 -21 -20 -91 94 -103 166 -11 69 -76 108 -165 99 -31
-3 -34 -6 -37 -40 -4 -50 -38 -77 -156 -124 -53 -20 -96 -42 -96 -49 0 -6 16
-51 36 -100 20 -48 37 -102 38 -119 1 -27 -3 -32 -41 -45 -60 -21 -71 -8 -88
113 -8 58 -20 105 -29 115 -14 16 -13 20 24 56 22 22 40 43 40 48 0 16 -51 -3
-117 -43 -36 -21 -77 -41 -91 -44 -15 -2 -43 -7 -63 -11 -61 -9 -62 -16 -19
-172 48 -172 59 -199 100 -246 64 -74 148 -73 338 4 67 27 133 49 145 49 22
-1 22 -1 2 -16 -51 -40 -460 -235 -532 -254 -43 -12 -130 -44 -193 -72 -136
-61 -184 -67 -345 -44 -167 23 -270 28 -379 17 -108 -11 -136 -4 -136 30 0 53
121 164 515 470 154 119 289 227 300 240 l20 22 -35 -18 c-19 -10 -86 -52
-148 -94 -200 -135 -201 -136 -249 -136 -41 0 -43 -2 -38 -23 6 -25 -7 -57
-27 -65 -9 -3 -13 9 -14 45 0 48 1 50 69 114 92 87 211 175 275 202 30 13 102
29 168 38 136 18 292 61 505 140 203 75 357 123 394 123 l30 0 -32 -28z
m-1393 -1 c0 -27 -180 -180 -212 -180 -21 0 -3 30 50 82 85 84 162 130 162 98z
m-3420 -138 c110 -59 234 -108 373 -146 166 -46 270 -59 407 -54 108 4 120 7
190 41 41 20 82 37 90 37 19 0 50 -32 119 -125 l53 -70 -47 -3 c-86 -6 -524
28 -764 58 -462 59 -631 87 -631 105 0 7 11 29 25 50 38 56 40 83 11 155 -14
35 -26 68 -26 73 0 5 28 -11 63 -36 34 -24 96 -62 137 -85z m-1509 2 c307
-205 1088 -495 1429 -530 59 -7 64 -6 52 9 -7 9 -79 37 -160 62 -491 155 -822
270 -822 286 0 10 99 -15 405 -101 154 -43 372 -104 485 -135 307 -84 613
-174 993 -291 188 -58 364 -113 390 -121 27 -8 47 -16 45 -18 -2 -2 -48 -12
-103 -21 -77 -14 -150 -17 -320 -16 l-220 1 -101 -49 c-128 -63 -351 -146
-563 -210 -220 -66 -296 -81 -396 -78 -46 2 -86 0 -90 -4 -4 -4 8 -20 27 -37
l33 -30 -35 -1 c-54 0 -216 54 -361 121 -71 32 -171 73 -221 90 -137 46 -526
247 -679 350 -63 42 -119 102 -119 126 0 13 7 14 41 9 22 -4 44 -4 49 -1 4 3
2 29 -6 58 -16 62 -16 57 -6 57 5 0 25 -16 45 -35 26 -25 37 -45 37 -64 0 -52
190 -206 360 -291 36 -18 103 -57 150 -88 71 -46 95 -56 145 -61 49 -6 72 -15
127 -53 80 -55 154 -75 217 -58 50 13 69 40 81 114 13 82 51 158 111 221 48
51 51 57 41 80 -7 14 -33 48 -58 75 -35 38 -52 48 -68 44 -13 -3 -34 4 -55 21
-44 32 -58 32 -73 0 -8 -18 -18 -25 -32 -23 -18 3 -21 10 -21 53 0 28 -3 55
-7 61 -4 7 -33 15 -64 19 -50 6 -63 13 -115 61 -56 52 -61 54 -114 54 -54 0
-57 2 -104 50 -44 46 -53 50 -94 50 -43 0 -48 3 -74 43 -18 25 -38 43 -52 45
-22 4 -23 1 -16 -34 6 -35 5 -37 -11 -23 -9 8 -26 33 -36 57 -31 68 -73 109
-139 133 -64 24 -84 41 -75 64 11 30 61 16 147 -41z m-225 -40 c15 -22 15 -32
5 -79 -14 -61 -80 -203 -104 -223 -30 -25 -40 -4 -33 67 21 206 81 313 132
235z m6504 -109 c22 -46 26 -95 9 -112 -18 -18 -38 -4 -64 46 -31 62 -41 117
-25 136 12 14 16 13 36 -6 13 -12 33 -41 44 -64z m-6344 -9 c43 -43 43 -66 -1
-152 -52 -104 -114 -154 -149 -119 -50 51 33 305 100 305 9 0 31 -15 50 -34z
m6154 -10 c14 -18 50 -133 50 -163 0 -48 -67 -19 -98 42 -19 39 -42 117 -37
126 9 14 71 11 85 -5z m-4950 -66 c12 -8 12 -10 -2 -15 -9 -4 -31 -5 -50 -3
l-33 4 25 11 c31 15 41 15 60 3z m-1042 -79 c6 -56 -54 -206 -98 -246 -23 -20
-43 -15 -64 18 -14 22 11 95 69 202 45 83 48 86 68 72 13 -9 23 -27 25 -46z
m5646 16 c25 -37 37 -109 25 -151 -9 -32 -14 -37 -37 -34 -33 4 -73 77 -80
147 -4 42 -1 50 18 64 27 18 51 10 74 -26z m-4276 -1 c206 -42 356 -65 722
-111 157 -19 323 -42 370 -51 168 -31 169 -31 183 5 16 43 45 41 139 -13 165
-94 278 -192 278 -241 0 -28 -32 -65 -56 -65 -9 0 -51 15 -93 34 -103 45 -170
65 -489 141 -147 36 -346 85 -442 110 -96 25 -290 70 -429 100 -279 61 -376
87 -406 109 -19 15 -18 15 18 16 20 0 113 -15 205 -34z m-1219 -77 c31 -19 33
-23 28 -59 -6 -45 -86 -219 -110 -239 -15 -12 -20 -11 -36 3 -10 10 -21 32
-24 49 -11 75 54 267 90 267 10 0 33 -9 52 -21z m5942 -28 c-15 -28 -81 -45
-81 -22 0 16 42 41 68 41 19 0 21 -3 13 -19z m-5776 -51 c46 -51 -31 -330 -91
-330 -8 0 -21 11 -30 25 -40 61 33 325 90 325 7 0 21 -9 31 -20z m5633 7 c13
-15 5 -30 -25 -46 -48 -25 -99 -7 -72 26 26 31 79 42 97 20z m-230 -89 c4 -23
-42 -70 -62 -62 -43 16 -15 88 32 82 16 -2 28 -10 30 -20z m-5237 -35 c23 -61
-22 -203 -81 -257 -44 -39 -61 -44 -80 -21 -16 20 -6 63 40 163 65 139 99 172
121 115z m153 -105 c23 -33 20 -55 -18 -133 -38 -79 -76 -121 -102 -111 -14 5
-16 16 -11 64 15 155 84 248 131 180z m180 -48 c34 -13 33 -32 -8 -115 -45
-93 -91 -155 -116 -155 -28 0 -52 42 -44 76 12 50 66 144 101 174 39 34 34 33
67 20z m-773 -20 c27 -15 24 -40 -5 -40 -26 0 -51 24 -41 40 8 13 21 13 46 0z
m3189 -29 c5 -11 10 -42 10 -68 0 -111 72 -318 133 -381 41 -42 90 -55 207
-55 223 1 464 82 611 205 38 32 71 58 74 58 3 0 5 -12 5 -27 0 -53 -139 -156
-294 -218 -206 -81 -496 -116 -615 -74 -29 10 -39 24 -77 103 -47 100 -130
338 -140 402 -4 31 -2 45 11 57 22 23 62 21 75 -2z m-3733 -107 c8 -21 -30
-58 -92 -89 -29 -14 -81 -50 -114 -80 -68 -61 -97 -69 -107 -30 -8 33 13 65
82 119 107 83 215 121 231 80z m881 -83 c6 -38 -13 -46 -37 -16 -24 31 -19 48
12 43 14 -2 23 -11 25 -27z m3211 -165 l21 -20 0 34 c0 19 -10 63 -22 97 -12
34 -19 65 -16 69 4 4 32 -3 62 -16 31 -12 94 -28 141 -35 48 -7 92 -18 98 -24
17 -17 -3 -44 -41 -53 -17 -5 -60 -29 -94 -53 -35 -25 -83 -55 -106 -67 l-44
-23 -22 26 c-23 27 -40 94 -51 199 l-6 55 30 -84 c16 -46 39 -93 50 -105z
m-1231 164 c81 -6 171 -13 201 -16 l54 -6 -74 -49 c-102 -69 -186 -112 -234
-118 -29 -5 -41 -11 -43 -26 -6 -30 -40 -63 -112 -105 -77 -46 -248 -116 -305
-125 l-40 -6 28 23 c31 27 35 40 10 31 -31 -11 -53 -35 -53 -60 0 -30 -16 -36
-69 -24 -33 7 -40 6 -32 -3 17 -20 -23 -50 -130 -100 -94 -43 -133 -70 -87
-59 13 3 102 35 198 70 171 64 275 92 335 93 31 0 75 -24 75 -41 0 -16 -61
-48 -195 -100 -175 -68 -245 -100 -245 -111 0 -13 40 -4 196 43 154 46 170 48
153 18 -21 -39 -92 -110 -131 -130 -24 -12 -58 -19 -94 -19 -39 0 -63 -5 -76
-17 -55 -50 27 -58 153 -16 88 30 104 25 92 -27 -11 -48 -33 -69 -110 -106
-199 -94 -1368 -455 -2163 -667 -294 -79 -302 -81 -504 -117 -202 -35 -222
-31 -143 33 63 52 182 113 267 136 41 12 145 28 230 37 166 16 221 27 259 51
13 8 55 19 95 25 49 7 84 18 113 38 31 20 62 30 108 35 48 5 73 13 95 32 25
21 36 24 69 18 50 -8 183 24 301 72 77 32 92 35 151 30 59 -5 74 -2 125 22 33
15 84 36 114 46 84 27 110 43 110 66 0 20 -4 21 -64 14 l-64 -6 -11 32 c-11
32 -11 32 -66 26 -106 -11 -224 -79 -261 -149 -26 -51 -51 -61 -75 -32 -11 14
-10 19 10 35 27 22 21 35 -22 44 -83 18 -156 129 -165 253 -7 102 25 152 97
152 39 0 45 -12 46 -90 1 -79 31 -161 79 -216 30 -34 35 -37 42 -21 4 11 -3
54 -16 100 -45 161 -46 174 -25 214 42 77 128 81 140 6 15 -103 28 -160 46
-194 22 -44 59 -73 73 -59 10 10 8 20 -30 199 -16 74 -16 87 -3 110 19 34 60
48 94 33 24 -11 25 -14 19 -81 -5 -55 -2 -83 15 -140 25 -81 71 -144 92 -124
9 9 8 24 -4 70 -9 32 -25 113 -36 181 -11 68 -25 130 -32 138 -16 20 -45 18
-125 -9 -77 -27 -85 -26 -132 14 -35 31 -52 35 -84 18 -16 -9 -19 -17 -13 -46
8 -46 -2 -52 -73 -41 -76 13 -121 6 -169 -26 -32 -21 -60 -29 -128 -36 -92 -9
-112 -19 -117 -52 -2 -12 -10 -25 -19 -31 -23 -14 -67 -1 -74 23 -4 14 -15 20
-34 20 -33 0 -51 -16 -51 -48 l0 -24 -110 7 c-106 7 -110 6 -110 -13 0 -11
-14 -32 -30 -46 -67 -55 -166 -58 -106 -3 14 13 26 27 26 31 0 3 -20 6 -44 6
-29 0 -55 -8 -80 -25 l-36 -24 -19 21 c-51 54 -80 171 -46 184 9 4 39 -4 68
-16 88 -38 173 -23 802 141 776 202 1203 343 1574 519 80 38 171 76 201 84 66
18 163 19 358 6z m698 -57 c39 -65 91 -221 100 -297 9 -73 -4 -87 -105 -120
-261 -87 -485 -111 -579 -62 -67 35 -150 163 -137 214 9 37 83 106 188 176
123 82 203 113 333 130 162 21 163 20 200 -41z m-3205 -210 c1 -21 5 -51 8
-68 l7 -30 17 39 c16 36 20 38 50 33 18 -3 79 -26 136 -51 145 -66 211 -80
344 -72 65 3 107 2 107 -4 0 -32 -582 -140 -754 -140 -78 0 -79 0 -118 39 -32
33 -39 46 -36 73 3 30 6 33 38 33 44 0 60 10 60 39 0 27 18 46 37 39 19 -8 60
33 73 73 15 45 30 43 31 -3z m4332 -124 c55 -36 114 -101 133 -146 29 -67 6
-195 -60 -339 -100 -216 -192 -277 -362 -239 -85 18 -250 77 -267 94 -17 17
34 14 151 -9 56 -11 125 -20 153 -20 44 0 54 4 80 33 17 17 55 82 84 142 85
174 115 317 81 383 -8 15 -31 43 -51 62 -20 19 -41 43 -46 53 -17 30 50 22
104 -14z m-2043 -13 c0 -26 -50 -56 -93 -56 -33 0 -38 2 -28 14 14 17 90 56
109 56 6 0 12 -6 12 -14z m1841 -6 c32 -18 24 -84 -25 -217 -53 -143 -71 -201
-64 -209 4 -3 25 7 47 22 32 21 44 24 55 15 24 -20 30 -85 11 -120 -22 -43
-52 -41 -161 13 -111 53 -203 85 -359 125 -125 31 -189 54 -199 70 -7 12 21
41 39 41 7 0 21 25 31 56 11 31 24 56 29 55 6 -1 10 -30 10 -66 0 -36 3 -65 6
-65 3 0 18 28 34 62 42 91 76 126 133 133 26 4 87 13 135 22 59 10 92 12 99 5
6 -6 -1 -44 -21 -112 -17 -57 -29 -105 -27 -108 8 -8 66 103 82 158 24 82 34
97 68 114 37 18 51 19 77 6z m-753 -91 c2 -9 -8 -34 -22 -54 -70 -103 4 -240
188 -353 52 -31 57 -38 38 -40 -47 -7 -275 120 -354 196 -27 26 -38 45 -38 66
0 37 48 112 106 166 45 42 76 49 82 19z m862 -19 c0 -35 -16 -48 -25 -20 -8
25 3 62 16 55 5 -4 9 -19 9 -35z m737 -306 c301 -90 330 -111 321 -231 -7
-100 -62 -182 -134 -202 -134 -37 -594 12 -723 78 -63 32 -60 41 14 41 72 0
119 18 189 73 49 39 96 112 96 149 0 43 32 68 85 68 25 0 45 3 45 7 0 4 -10
17 -22 30 -30 32 -14 31 129 -13z m1737 2 c7 -28 -2 -58 -15 -50 -12 7 -12 74
0 74 5 0 12 -11 15 -24z m-6369 -32 c22 -9 49 -66 69 -148 29 -118 51 -150
139 -200 55 -31 65 -62 17 -53 -24 5 -36 1 -60 -23 -49 -48 -81 -35 -73 30 5
34 3 38 -25 48 -19 7 -40 26 -57 56 -35 59 -95 228 -95 266 0 27 3 30 34 30
19 0 42 -3 51 -6z m-170 -68 c13 -13 26 -41 30 -62 11 -69 32 -158 46 -191 18
-45 5 -56 -106 -88 -115 -34 -206 -43 -223 -22 -17 20 -52 181 -52 242 0 55
25 106 61 126 32 17 44 -4 69 -120 27 -119 38 -150 63 -178 23 -25 65 -31 73
-9 3 7 -13 68 -35 136 -23 67 -41 130 -41 141 0 22 37 49 68 49 12 0 34 -11
47 -24z m-402 -103 c17 -44 31 -113 47 -235 12 -91 25 -113 69 -120 13 -1 29
-11 35 -20 16 -25 -20 -57 -81 -73 -67 -18 -77 -10 -78 67 -1 41 -12 97 -33
161 -37 113 -43 208 -15 239 24 27 39 22 56 -19z m1175 -127 c22 -21 -11 -46
-61 -46 -50 0 -70 11 -65 36 6 34 95 41 126 10z m-1339 -47 c21 -35 61 -147
61 -174 0 -28 -25 -45 -66 -45 -34 0 -64 -26 -64 -55 0 -27 -18 -45 -47 -45
-35 0 -30 31 27 161 27 62 53 129 56 147 7 38 14 40 33 11z m722 -98 c-13 -24
-96 -65 -116 -57 -44 17 27 75 93 76 29 0 32 -2 23 -19z m-196 -46 c0 -16 -6
-19 -28 -17 -22 2 -30 -2 -34 -18 -12 -45 -103 -45 -103 -1 0 24 8 29 68 46
66 18 97 15 97 -10z m-429 -119 c41 -31 -26 -73 -76 -46 -24 13 -25 23 -4 44
19 20 54 20 80 2z m-2623 -1926 c26 -16 70 -48 98 -70 74 -59 159 -106 240
-134 115 -40 134 -72 52 -85 -37 -6 -38 -8 -40 -49 -1 -24 -9 -54 -18 -69 -16
-24 -21 -25 -71 -19 -56 6 -329 74 -399 99 -50 17 -54 36 -25 125 25 77 97
232 108 232 5 0 29 -13 55 -30z m545 -464 c5 -22 -25 -56 -50 -56 -24 0 -23
21 3 54 23 29 42 30 47 2z"/>
<path d="M5843 23519 c-71 -21 -93 -98 -50 -179 39 -74 83 -101 209 -125 36
-7 125 -90 189 -177 l53 -70 32 63 c44 85 43 117 -5 211 -75 147 -163 243
-249 272 -50 17 -129 19 -179 5z"/>
<path d="M6357 23423 c-3 -5 15 -60 39 -122 50 -124 54 -162 16 -121 -13 14
-42 59 -65 100 -51 92 -59 73 -17 -41 63 -169 89 -212 188 -299 26 -23 30 -34
36 -108 12 -136 52 -156 121 -61 32 43 55 61 55 44 0 -15 -39 -77 -90 -145
-93 -122 -113 -157 -107 -182 4 -14 -3 -38 -19 -65 -22 -39 -23 -43 -7 -43 22
0 189 123 174 128 -6 2 -26 -1 -43 -7 -17 -6 -40 -11 -51 -11 -19 0 -19 1 -1
28 10 15 45 61 77 102 84 106 97 136 97 245 0 190 -40 284 -175 414 -116 111
-211 171 -228 144z"/>
<path d="M5648 23344 c-15 -15 24 -95 71 -146 30 -33 35 -34 61 -8 12 12 26
17 37 13 27 -10 -17 46 -78 101 -47 42 -77 55 -91 40z"/>
<path d="M5651 23141 c-19 -12 -6 -44 46 -107 l44 -55 -45 6 c-51 8 -60 -4
-24 -29 29 -21 51 -20 71 2 23 25 21 45 -4 68 -16 14 -20 27 -16 51 5 27 1 36
-20 53 -29 22 -32 23 -52 11z"/>
<path d="M7583 22824 c-21 -56 190 -233 334 -279 43 -14 61 -15 103 -6 28 6
70 11 93 11 85 0 157 65 157 141 0 64 -21 71 -233 81 -196 8 -265 18 -353 48
-69 24 -93 25 -101 4z"/>
<path d="M7839 22493 c15 -29 60 -42 163 -50 49 -3 88 -10 88 -14 0 -5 -12
-16 -26 -25 -19 -13 -22 -19 -12 -26 26 -17 125 20 161 60 18 20 18 20 -10 26
-15 3 -77 8 -138 12 -110 6 -184 16 -219 30 -16 6 -17 4 -7 -13z"/>
<path d="M4494 21685 c-18 -13 -16 -14 23 -15 43 0 65 13 37 24 -24 9 -39 7
-60 -9z"/>
<path d="M4351 21651 c-11 -7 -9 -10 8 -16 24 -7 61 2 61 16 0 11 -50 12 -69
0z"/>
<path d="M4618 21604 c-26 -8 -50 -19 -53 -24 -11 -18 68 -10 140 15 l70 23
-55 0 c-30 0 -76 -6 -102 -14z"/>
<path d="M3820 21571 c-72 -23 -116 -47 -123 -66 -9 -22 10 -19 78 14 133 63
154 87 45 52z"/>
<path d="M4000 21538 c-53 -28 -68 -55 -24 -44 36 9 94 44 94 57 0 15 -23 10
-70 -13z"/>
<path d="M4361 21532 c-48 -19 -52 -38 -6 -33 31 3 135 39 135 47 0 11 -90 1
-129 -14z"/>
<path d="M3477 21163 c-30 -8 -8 -23 33 -23 44 0 61 15 27 24 -24 6 -33 6 -60
-1z"/>
<path d="M5900 21306 c33 -87 102 -197 115 -184 8 8 -27 77 -77 151 -42 61
-53 71 -38 33z"/>
<path d="M7172 21198 c-14 -14 -17 -98 -3 -98 12 0 43 68 39 87 -4 21 -21 26
-36 11z"/>
<path d="M8240 21091 c-47 -10 -143 -40 -214 -66 -205 -74 -319 -105 -391
-105 -45 0 -50 -12 -19 -49 39 -46 86 -55 228 -42 141 14 275 41 399 83 122
41 244 44 359 9 42 -13 84 -21 92 -18 51 20 -22 135 -114 183 -53 27 -230 29
-340 5z"/>
<path d="M7227 21053 c-22 -25 -107 -197 -107 -217 0 -46 48 7 94 104 39 84
53 130 39 130 -6 0 -17 -8 -26 -17z"/>
<path d="M7405 21010 c-11 -18 15 -50 40 -50 31 0 33 23 3 44 -26 19 -35 20
-43 6z"/>
<path d="M6073 20970 c-84 -18 -142 -51 -203 -117 -33 -35 -60 -68 -60 -73 0
-15 40 -12 101 7 69 22 249 23 484 4 216 -17 566 -12 609 9 66 33 35 68 -62
69 -67 0 -136 12 -412 71 -156 33 -375 48 -457 30z"/>
<path d="M7822 20750 c-87 -23 -221 -91 -269 -137 -39 -36 -39 -33 -14 -203 6
-36 17 -141 26 -235 22 -237 30 -272 72 -311 65 -59 94 -213 53 -279 -37 -60
-235 -194 -287 -195 -34 0 -5 -47 84 -141 117 -122 176 -159 251 -159 127 0
232 119 232 264 1 110 47 71 110 -91 23 -59 46 -112 51 -117 15 -16 10 115 -6
179 -23 87 -105 250 -167 328 -96 122 -128 170 -128 189 0 25 -48 148 -130
338 -119 273 -125 313 -57 388 16 18 31 22 74 22 59 0 80 8 133 52 19 15 38
28 42 28 3 0 6 -35 5 -77 -2 -77 -2 -77 28 -93 21 -10 59 -15 127 -15 111 0
144 16 164 76 6 19 19 36 29 37 10 2 51 -19 91 -48 118 -82 194 -108 194 -67
0 8 -34 50 -76 95 -92 99 -171 143 -314 172 -119 25 -224 24 -318 0z m-32 -68
c0 -27 -29 -62 -51 -62 -25 0 -24 21 2 54 24 30 49 34 49 8z m227 -99 c16 -40
11 -52 -13 -32 -20 16 -36 57 -28 70 9 15 25 0 41 -38z"/>
<path d="M6778 20699 c-236 -19 -452 -72 -609 -149 -56 -27 -111 -50 -121 -50
-27 0 -58 -18 -58 -35 0 -39 180 -46 250 -10 19 10 54 39 78 64 35 38 44 43
52 31 5 -8 10 -24 10 -36 0 -68 143 -107 237 -65 45 21 67 49 78 98 14 68 56
67 99 -1 16 -25 37 -53 47 -62 18 -16 19 -16 19 8 0 14 -9 46 -21 72 -37 84
-20 88 56 14 38 -38 70 -68 71 -68 2 0 -11 29 -28 65 -16 36 -28 72 -24 80 3
8 27 20 53 27 47 12 47 12 18 19 -39 9 -87 8 -207 -2z m-183 -169 c0 -20 -62
-35 -108 -26 -39 7 -50 31 -19 39 9 3 42 4 72 4 42 -2 55 -6 55 -17z"/>
<path d="M7098 20625 c-10 -10 7 -49 51 -113 77 -112 130 -137 76 -35 -32 61
-116 159 -127 148z"/>
<path d="M8245 20436 c-27 -13 -61 -35 -73 -49 l-24 -25 61 15 c34 9 64 13 67
10 3 -3 -7 -24 -22 -46 -50 -76 0 -66 82 16 70 70 71 97 4 101 -31 1 -60 -5
-95 -22z"/>
<path d="M6804 20390 c-50 -17 -111 -45 -135 -62 l-44 -33 45 -3 c24 -2 65 2
90 8 62 15 206 86 214 105 9 25 -67 18 -170 -15z"/>
<path d="M7290 19938 c22 -57 85 -158 100 -158 12 0 -14 73 -47 130 -53 92
-84 108 -53 28z"/>
<path d="M6915 19821 c-105 -85 -294 -317 -359 -441 -37 -71 -79 -197 -70
-211 10 -17 24 1 66 84 71 142 126 214 208 270 104 71 195 172 225 250 17 46
17 88 0 94 -6 2 -37 -19 -70 -46z"/>
<path d="M7135 19594 c-22 -23 -15 -56 15 -71 28 -14 200 -18 200 -5 0 14 -43
48 -87 71 -50 25 -105 27 -128 5z"/>
<path d="M6990 19565 c29 -75 73 -125 111 -125 33 0 21 30 -38 91 -60 64 -89
77 -73 34z"/>
<path d="M5930 19495 c-18 -22 -8 -50 19 -50 32 0 49 28 32 49 -17 20 -35 20
-51 1z"/>
<path d="M6265 19342 c-7 -65 11 -332 24 -345 21 -21 24 247 5 371 -8 50 -21
38 -29 -26z"/>
<path d="M8216 19252 c-15 -24 19 -322 46 -407 13 -39 13 -38 16 55 4 145 -39
389 -62 352z"/>
<path d="M6649 19012 c-17 -82 -16 -145 4 -176 10 -14 21 -26 26 -26 5 0 13
28 18 62 4 34 13 63 18 65 6 2 53 -24 105 -57 52 -33 117 -67 145 -76 86 -26
243 -45 375 -46 147 -1 238 19 418 88 63 24 124 44 136 44 29 0 46 -20 89
-105 28 -56 37 -66 43 -51 15 39 9 104 -12 133 -47 63 -117 83 -403 118 -112
14 -236 32 -275 40 -97 20 -254 33 -483 39 l-192 6 -12 -58z m736 -57 c248
-16 300 -24 293 -47 -8 -24 -86 -30 -313 -24 -237 6 -303 13 -364 44 -96 47
-27 52 384 27z"/>
<path d="M6392 18905 c0 -84 3 -128 8 -110 10 40 10 193 0 225 -5 15 -8 -31
-8 -115z"/>
<path d="M7730 18644 c-25 -29 -95 -63 -155 -73 -33 -6 -179 -15 -323 -21
-145 -6 -271 -14 -280 -19 -24 -14 310 -175 363 -175 73 0 349 149 394 212 36
52 37 120 1 76z"/>
<path d="M6310 18626 c0 -33 22 -106 36 -117 24 -20 27 -3 9 55 -18 58 -45 94
-45 62z"/>
<path d="M6465 18549 c25 -157 47 -239 66 -239 29 0 -29 268 -60 278 -10 3
-12 -5 -6 -39z"/>
<path d="M5362 17849 c-16 -88 -15 -186 4 -293 29 -170 118 -425 212 -613 136
-270 477 -798 638 -989 136 -161 369 -527 465 -729 26 -55 54 -109 63 -120 15
-20 15 -19 16 6 1 82 -208 540 -357 783 -119 194 -167 303 -217 494 -44 166
-102 327 -172 471 -126 261 -220 396 -428 612 -175 181 -196 216 -205 348 l-7
96 -12 -66z"/>
<path d="M6140 17201 c0 -18 102 -121 188 -189 259 -207 727 -502 794 -502 20
0 20 2 8 14 -8 8 -112 76 -230 152 -258 164 -454 301 -610 425 -124 98 -150
115 -150 100z"/>
<path d="M6903 16995 c67 -59 340 -203 635 -336 282 -127 428 -181 330 -121
-197 119 -936 483 -979 482 -9 -1 -4 -10 14 -25z"/>
<path d="M9427 16691 c-19 -21 -57 -79 -83 -127 -51 -93 -94 -139 -401 -434
-132 -127 -175 -191 -155 -235 15 -33 35 -25 123 47 56 46 75 57 77 44 7 -35
-149 -239 -338 -441 -238 -255 -288 -348 -310 -580 -6 -60 -17 -145 -26 -188
-9 -43 -14 -81 -11 -83 4 -5 66 127 88 189 7 21 26 52 40 70 22 25 30 29 40
20 13 -13 5 -41 -54 -195 -14 -38 -23 -68 -20 -68 3 0 94 87 202 193 108 106
228 218 266 248 117 93 194 185 328 389 147 225 213 363 227 476 7 53 18 89
34 113 14 21 27 59 30 91 4 30 20 105 36 165 15 61 31 139 35 175 16 151 -49
218 -128 131z"/>
<path d="M3320 16419 c0 -6 17 -54 39 -107 71 -177 238 -710 301 -961 55 -222
71 -333 95 -696 21 -309 35 -366 49 -198 13 159 -31 544 -99 856 -74 346 -281
994 -347 1090 -20 28 -38 36 -38 16z"/>
<path d="M3630 16036 c0 -3 20 -74 45 -158 98 -336 146 -574 185 -919 18 -152
21 -229 18 -444 -3 -244 -2 -263 17 -300 30 -59 55 -54 80 15 32 91 27 302
-14 570 -101 672 -242 1225 -313 1238 -10 2 -18 1 -18 -2z"/>
<path d="M6792 15957 c6 -18 187 -107 232 -114 56 -9 40 8 -50 52 -102 49
-187 78 -182 62z"/>
<path d="M6750 15884 c0 -8 3 -10 84 -73 61 -47 87 -49 42 -2 -28 29 -126 88
-126 75z"/>
<path d="M8591 15860 c-55 -25 -128 -84 -187 -149 -44 -49 -48 -51 -98 -51
-57 0 -86 -19 -86 -56 0 -28 -15 -45 -32 -39 -9 4 -36 -2 -60 -13 -42 -20
-193 -59 -313 -82 -107 -21 -194 -50 -204 -69 -6 -10 -41 -34 -78 -54 -77 -40
-155 -116 -228 -221 -70 -100 -150 -191 -294 -332 -69 -69 -117 -121 -106
-117 11 3 92 40 180 81 199 93 235 97 359 39 153 -72 260 -73 400 -3 161 80
290 210 545 551 87 116 182 239 212 274 144 170 151 185 104 235 -29 31 -55
32 -114 6z"/>
<path d="M2353 15638 c-42 -57 -188 -242 -323 -413 -303 -381 -491 -632 -625
-835 -235 -356 -277 -447 -224 -483 22 -16 23 -15 44 36 39 96 254 416 262
390 2 -6 -41 -99 -97 -207 -100 -196 -114 -242 -85 -266 21 -17 40 0 59 55 38
112 409 717 691 1125 59 85 116 173 127 194 l20 40 -27 -18 c-70 -46 -31 32
107 217 102 136 168 236 168 256 0 27 -25 4 -97 -91z m-223 -437 c0 -21 -6
-32 -21 -36 -33 -11 -42 8 -19 38 28 35 40 34 40 -2z"/>
<path d="M10454 15548 c3 -13 10 -50 16 -83 6 -33 49 -222 95 -420 108 -466
146 -651 151 -750 l5 -80 -21 40 c-11 22 -41 97 -66 168 -45 124 -75 179 -89
165 -8 -8 13 -102 50 -227 43 -144 4 -113 -66 54 -120 283 -317 675 -326 648
-5 -13 48 -147 177 -443 213 -491 425 -1048 406 -1068 -8 -7 -46 59 -124 213
-183 361 -509 919 -519 888 -5 -15 30 -84 142 -278 110 -190 185 -338 185
-362 -1 -30 -58 43 -140 178 -85 139 -457 700 -570 858 -138 194 -83 69 91
-205 42 -67 176 -269 296 -450 323 -484 492 -769 534 -900 13 -38 32 -82 43
-99 29 -44 147 -175 157 -175 5 0 20 24 35 53 37 74 69 114 98 121 28 7 36 23
46 91 31 205 -128 1009 -281 1426 -72 197 -186 444 -267 582 -46 77 -67 97
-58 55z m72 -1603 c17 -42 18 -58 2 -53 -18 6 -51 65 -43 78 12 19 26 10 41
-25z"/>
<path d="M4687 15458 c-178 -242 -524 -763 -568 -857 -34 -71 -49 -141 -31
-141 15 0 61 69 219 325 229 371 449 745 439 745 -3 0 -29 -33 -59 -72z"/>
<path d="M5068 15108 c-264 -288 -600 -699 -584 -715 3 -4 32 22 64 57 127
141 457 538 556 670 27 36 54 71 59 78 5 6 7 12 4 12 -3 0 -47 -46 -99 -102z"/>
<path d="M4825 14963 c-101 -101 -352 -411 -387 -477 -24 -46 58 44 195 214
77 96 167 206 200 243 33 37 57 70 55 73 -3 2 -31 -21 -63 -53z"/>
<path d="M2089 14613 c-271 -280 -909 -1097 -909 -1165 0 -21 0 -21 22 -2 18
16 864 1071 952 1186 15 20 26 44 24 53 -2 12 -29 -10 -89 -72z"/>
<path d="M4663 14375 c-56 -55 -90 -94 -79 -93 16 3 197 188 183 188 -3 0 -49
-43 -104 -95z"/>
<path d="M4218 14413 c-85 -89 -411 -727 -449 -877 -23 -91 6 -72 95 63 147
224 309 548 288 574 -11 14 2 50 62 169 42 86 44 113 4 71z"/>
<path d="M9866 14363 c86 -135 260 -369 303 -407 59 -53 -6 69 -111 207 -79
105 -209 257 -220 257 -5 0 8 -26 28 -57z"/>
<path d="M4457 14148 c-120 -127 -367 -445 -519 -668 -120 -176 -140 -213
-136 -252 7 -76 71 -40 270 151 210 201 286 308 338 473 30 96 64 175 110 258
25 44 27 90 3 90 -9 0 -39 -24 -66 -52z"/>
<path d="M11132 13900 c0 -107 3 -143 9 -115 10 50 10 166 0 225 -6 32 -9 -1
-9 -110z"/>
<path d="M8157 14004 c-10 -11 -9 -94 2 -94 14 0 23 53 13 79 -4 12 -11 19
-15 15z"/>
<path d="M3283 13867 c-11 -12 -66 -99 -122 -194 -201 -339 -424 -652 -671
-943 -181 -212 -309 -379 -706 -915 -742 -1002 -969 -1323 -950 -1342 3 -4 85
72 181 168 132 132 189 182 236 207 59 30 113 69 203 144 26 21 38 27 33 16
-3 -10 -9 -41 -12 -70 l-7 -53 38 45 c64 76 104 110 129 110 32 0 89 66 184
213 155 241 617 937 714 1077 143 206 296 410 313 417 9 3 14 20 14 47 0 46
26 97 133 266 72 112 212 386 223 434 12 53 -19 24 -95 -92 -41 -61 -77 -109
-80 -107 -3 3 52 119 121 258 118 235 156 322 146 333 -3 2 -14 -6 -25 -19z"/>
<path d="M8122 13775 c-17 -59 -33 -185 -27 -207 24 -73 63 99 46 202 l-7 45
-12 -40z"/>
<path d="M7413 13575 c-20 -38 -44 -125 -38 -135 3 -5 15 -10 25 -10 19 0 21
5 34 73 3 12 1 38 -3 57 -6 32 -8 33 -18 15z"/>
<path d="M2403 13403 c-289 -428 -776 -1223 -760 -1239 13 -13 211 277 451
659 233 372 426 710 413 723 -3 3 -50 -62 -104 -143z"/>
<path d="M7382 13162 c6 -82 25 -162 40 -162 14 0 9 133 -7 188 -24 79 -39 67
-33 -26z"/>
<path d="M7950 13197 c0 -7 7 -35 16 -61 49 -144 -42 -331 -161 -331 -32 0
-50 6 -69 24 -40 37 -48 85 -35 191 12 94 7 119 -16 86 -23 -30 -38 -124 -30
-185 21 -174 142 -273 256 -210 76 43 156 196 145 277 -10 72 -106 262 -106
209z"/>
<path d="M2358 13103 c-23 -32 -171 -249 -328 -483 -275 -409 -514 -755 -859
-1245 -188 -266 -257 -373 -246 -383 41 -40 1125 1510 1422 2033 79 139 84
177 11 78z"/>
<path d="M2623 13056 c-34 -36 -185 -213 -334 -393 -150 -181 -300 -359 -334
-398 -127 -145 -308 -391 -807 -1095 -345 -487 -675 -1038 -589 -986 18 11
117 149 306 426 461 673 916 1294 1453 1984 257 329 377 496 370 516 -2 7 -31
-18 -65 -54z"/>
<path d="M7763 13020 c-32 -64 -30 -150 3 -150 19 0 25 34 22 120 l-3 75 -22
-45z"/>
<path d="M9710 12922 c0 -10 92 -62 109 -62 24 0 10 40 -19 55 -31 16 -90 21
-90 7z"/>
<path d="M10220 12923 c-125 -12 -208 -26 -239 -40 l-36 -16 50 -8 c168 -25
681 9 688 46 1 5 -11 13 -28 16 -31 7 -373 8 -435 2z"/>
<path d="M2908 12693 c-189 -203 -790 -1018 -875 -1187 l-25 -51 24 23 c14 12
65 78 114 145 48 67 235 320 414 562 344 464 409 555 397 555 -2 0 -24 -21
-49 -47z"/>
<path d="M7420 12675 c0 -137 56 -560 81 -606 35 -67 27 56 -30 439 -34 226
-50 279 -51 167z"/>
<path d="M7895 11916 c-16 -13 -27 -27 -24 -31 11 -11 79 23 79 39 0 23 -20
20 -55 -8z"/>
<path d="M7308 11680 c-83 -43 -111 -68 -62 -56 38 9 104 48 128 75 25 27 25
27 -66 -19z"/>
<path d="M6955 11546 c-267 -88 -352 -128 -317 -150 4 -2 37 8 73 24 36 15
130 50 210 78 79 27 160 57 179 66 41 18 100 56 85 55 -5 0 -109 -33 -230 -73z"/>
<path d="M2517 10985 c45 -57 102 -110 110 -102 8 9 -26 45 -92 101 l-50 41
32 -40z"/>
<path d="M2545 10845 c32 -36 64 -65 72 -65 12 0 12 3 1 18 -15 21 -116 112
-124 112 -3 0 20 -29 51 -65z"/>
<path d="M958 10500 c-188 -168 -450 -642 -483 -872 -8 -64 7 -61 33 5 11 28
37 93 56 142 48 123 120 254 229 415 203 299 229 340 225 350 -2 6 -29 -12
-60 -40z"/>
<path d="M2458 10096 c-75 -31 -143 -82 -220 -165 -74 -80 -119 -163 -125
-229 -8 -92 33 -96 73 -6 52 119 145 236 272 345 97 84 97 95 0 55z"/>
<path d="M1973 9704 c-23 -36 -31 -236 -14 -357 23 -162 109 -419 156 -466 13
-14 15 -13 15 9 0 14 -7 52 -15 85 -8 33 -14 64 -15 69 0 5 28 -29 62 -77 33
-48 63 -85 65 -83 3 2 -9 55 -26 118 -38 145 -58 258 -66 383 -11 160 -38 175
-72 40 l-18 -70 -6 55 c-4 30 -8 100 -9 155 -4 157 -19 196 -57 139z"/>
<path d="M1552 8498 c5 -13 136 -88 153 -87 15 0 -55 58 -97 80 -43 22 -61 24
-56 7z"/>
<path d="M14450 17241 c-37 -70 28 -181 106 -181 61 0 94 64 63 121 -33 62
-146 102 -169 60z"/>
<path d="M13817 16249 c-48 -41 -58 -59 -33 -59 14 0 92 88 84 95 -2 2 -25
-14 -51 -36z"/>
<path d="M13502 15852 c-105 -130 -140 -203 -47 -100 45 50 125 160 125 172 0
17 -22 -3 -78 -72z"/>
<path d="M13322 15614 c-39 -33 -55 -64 -33 -64 11 0 86 89 80 95 -2 2 -23
-12 -47 -31z"/>
<path d="M12862 15143 c-61 -66 -228 -289 -297 -398 -75 -119 -177 -330 -209
-432 -91 -294 -43 -494 136 -559 101 -37 290 -27 395 21 62 28 127 106 294
353 156 229 239 370 239 402 0 20 -13 38 -50 69 -28 24 -53 54 -56 69 -8 34
-67 96 -121 128 -68 41 -118 103 -143 180 -39 118 -96 214 -128 214 -9 0 -36
-21 -60 -47z m-67 -478 c-10 -30 -46 -90 -91 -150 -87 -117 -110 -168 -95
-208 9 -22 17 -27 43 -27 49 0 93 31 188 131 59 61 92 89 108 89 32 0 37 -24
13 -57 -45 -61 -57 -273 -16 -273 33 0 114 127 115 179 0 50 101 117 116 77
13 -33 -146 -276 -246 -376 -129 -129 -226 -154 -348 -91 -35 18 -73 31 -85
29 -20 -3 -22 -10 -25 -66 -3 -68 -15 -82 -52 -62 -23 12 -59 82 -60 114 0 10
12 32 26 49 25 30 25 31 18 151 -7 136 -3 153 65 261 22 34 55 95 75 137 36
77 105 172 205 286 l56 64 3 -103 c2 -73 -2 -117 -13 -154z m359 -44 c9 -14
-33 -61 -54 -61 -30 0 -33 18 -6 45 26 25 50 32 60 16z"/>
<path d="M12812 14146 c-11 -30 -24 -71 -28 -90 -9 -51 12 -47 81 15 55 51 66
71 27 50 -23 -12 -42 3 -42 34 -1 49 -17 45 -38 -9z"/>
<path d="M12450 12585 c-15 -29 -3 -50 23 -40 19 8 28 30 21 50 -9 23 -29 18
-44 -10z"/>
<path d="M13210 13025 c48 -49 142 -125 155 -125 4 0 5 12 2 27 -5 27 -5 27
23 -6 34 -42 66 -38 56 7 -15 63 -114 122 -231 136 l-49 6 44 -45z"/>
<path d="M5575 12776 c-138 -61 -53 -245 113 -246 35 0 49 6 74 30 27 28 30
36 26 78 -7 69 -35 122 -74 138 -42 17 -100 17 -139 0z"/>
<path d="M13510 12561 c0 -27 49 -101 66 -101 21 0 17 43 -9 81 -27 40 -57 51
-57 20z"/>
<path d="M14010 12420 c0 -38 91 -192 105 -178 14 13 -57 160 -89 188 -14 11
-16 9 -16 -10z"/>
<path d="M13519 12172 c-26 -22 -20 -52 10 -52 11 0 32 -10 47 -23 21 -19 27
-32 27 -67 0 -46 -9 -58 -73 -92 -17 -10 -28 -22 -25 -28 12 -19 61 -10 108
20 38 24 47 35 47 57 0 49 -83 203 -109 203 -5 0 -19 -8 -32 -18z"/>
<path d="M5360 11799 c0 -44 4 -68 10 -64 6 3 10 35 10 71 0 36 -4 64 -10 64
-6 0 -10 -30 -10 -71z"/>
<path d="M5426 11738 c-8 -76 6 -185 31 -236 12 -25 33 -45 63 -60 107 -55
290 8 290 100 0 39 -53 63 -122 54 -26 -3 -69 -9 -96 -12 -60 -8 -69 2 -121
125 l-38 93 -7 -64z"/>
<path d="M7828 11143 c-25 -7 -51 -20 -59 -29 -22 -27 8 -35 98 -28 77 6 82 5
93 -17 28 -52 -10 -210 -62 -256 -21 -18 -21 -18 -8 6 11 21 10 26 -6 38 -21
15 -92 17 -128 3 -34 -13 -33 -35 5 -77 34 -39 33 -48 -3 -34 -35 13 -41 32
-48 140 -5 98 -19 124 -38 74 -32 -81 -21 -184 27 -251 42 -57 76 -68 159 -50
l67 14 46 90 c26 50 53 116 60 148 11 53 11 60 -12 107 -28 61 -87 124 -121
131 -14 2 -45 -1 -70 -9z"/>
<path d="M7843 10974 c-7 -19 30 -59 46 -50 16 10 14 32 -5 50 -20 20 -33 20
-41 0z"/>
<path d="M4853 11154 c-27 -12 -11 -25 25 -22 20 2 36 8 35 13 -3 11 -41 17
-60 9z"/>
<path d="M4464 11065 c-23 -35 -12 -90 25 -129 33 -35 51 -89 51 -156 0 -56
19 -94 48 -98 31 -5 56 56 48 115 -13 96 -108 293 -141 293 -8 0 -22 -11 -31
-25z"/>
<path d="M4367 10832 c-38 -38 -47 -62 -24 -62 25 1 77 60 77 87 0 22 -14 15
-53 -25z"/>
<path d="M4331 10534 c-24 -30 -18 -52 17 -61 31 -7 75 15 80 40 10 49 -63 65
-97 21z"/>
<path d="M4796 10509 c10 -17 117 -63 203 -89 40 -12 80 -24 87 -27 24 -9 16
35 -9 52 -24 15 -238 75 -270 75 -11 0 -15 -4 -11 -11z"/>
<path d="M4393 10375 c20 -26 37 -56 37 -67 0 -39 -163 -118 -246 -118 -51 0
-145 -43 -183 -84 -23 -24 -23 -26 -5 -26 21 0 58 17 137 64 26 15 47 26 47
24 0 -2 -11 -19 -25 -38 -53 -71 -21 -81 55 -16 88 75 195 84 316 27 66 -31
87 -52 124 -119 14 -25 31 -47 38 -50 7 -2 21 15 32 41 24 55 20 71 -44 149
-25 31 -46 61 -46 66 0 5 23 7 50 4 59 -5 289 27 269 38 -8 4 -34 11 -59 15
-125 19 -417 93 -514 131 -15 6 -10 -5 17 -41z"/>
<path d="M3887 9953 c-4 -3 -7 -17 -7 -29 0 -27 -25 -42 -113 -70 -45 -14 -54
-20 -41 -27 20 -11 86 -2 128 19 39 20 106 84 106 101 0 14 -61 19 -73 6z"/>
<path d="M4874 9912 c8 -13 127 -52 157 -52 62 0 -39 49 -119 58 -32 3 -43 2
-38 -6z"/>
<path d="M4541 9794 c-27 -52 -52 -89 -65 -93 -13 -5 -45 0 -90 15 -38 13 -72
24 -75 24 -3 0 12 -15 32 -34 24 -22 37 -43 37 -60 0 -27 5 -30 91 -41 27 -3
61 -17 80 -31 19 -14 53 -35 77 -45 41 -18 188 -59 211 -59 30 0 0 43 -102
149 -127 129 -137 144 -146 213 l-6 48 -44 -86z"/>
<path d="M4720 9741 c1 -11 87 -71 119 -82 18 -7 55 -9 82 -6 56 7 159 37 159
47 0 4 -48 10 -107 13 -60 4 -141 13 -180 21 -40 7 -73 11 -73 7z"/>
<path d="M3840 9430 c113 -40 215 -60 297 -59 l68 1 -65 14 c-43 10 -73 23
-93 42 -28 26 -31 27 -160 29 l-132 2 85 -29z"/>
<path d="M5100 9390 c-35 -8 -40 -47 -7 -55 45 -12 72 -2 72 24 0 27 -27 41
-65 31z"/>
<path d="M4534 9302 c-17 -11 -36 -51 -29 -62 9 -15 23 -12 45 10 34 34 21 77
-16 52z"/>
<path d="M5282 9295 c-87 -16 -202 -55 -202 -68 0 -15 176 0 253 22 78 21 100
37 77 51 -19 12 -37 11 -128 -5z"/>
<path d="M4050 9240 c-10 -7 10 -10 65 -10 55 0 75 3 65 10 -8 5 -37 10 -65
10 -27 0 -57 -5 -65 -10z"/>
<path d="M11169 9618 c31 -83 100 -188 122 -188 5 0 9 8 9 18 0 21 -84 145
-119 177 l-22 19 10 -26z"/>
<path d="M11475 8945 c-38 -7 -144 -17 -234 -23 -125 -8 -167 -14 -179 -26
-14 -14 -12 -17 31 -36 26 -12 85 -31 131 -43 83 -21 85 -21 142 -3 75 23 192
77 223 103 14 11 21 25 17 31 -9 14 -38 14 -131 -3z"/>
<path d="M7230 10068 c0 -7 33 -44 74 -83 86 -80 94 -102 78 -194 -6 -36 -9
-67 -8 -69 8 -7 86 147 86 169 0 27 -66 91 -153 149 -63 43 -77 47 -77 28z"/>
<path d="M6310 10354 c0 -32 20 -54 50 -54 41 0 48 19 16 47 -31 26 -66 31
-66 7z"/>
<path d="M6240 10167 c0 -69 16 -104 44 -94 9 4 16 15 16 26 0 26 -42 131 -52
131 -5 0 -8 -28 -8 -63z"/>
<path d="M3173 10191 c-123 -89 -239 -291 -300 -524 -24 -89 -27 -122 -28
-257 0 -146 1 -158 25 -205 14 -27 31 -51 39 -53 15 -5 13 37 -8 171 -20 122
18 394 75 546 29 76 87 160 183 263 39 42 71 79 71 82 0 12 -18 5 -57 -23z"/>
<path d="M9458 7184 c-32 -17 -37 -41 -10 -46 29 -6 87 12 118 37 l29 24 -55
0 c-30 0 -67 -7 -82 -15z"/>
<path d="M8920 6691 c-106 -34 -211 -82 -229 -104 -7 -9 -11 -17 -8 -17 10 0
233 79 280 99 27 12 58 28 70 36 l21 15 -24 -1 c-14 0 -63 -13 -110 -28z"/>
<path d="M8988 6621 c-98 -32 -201 -104 -120 -85 71 17 202 78 202 94 0 14
-16 12 -82 -9z"/>
<path d="M9028 6499 c-31 -29 -32 -30 -8 -24 37 10 72 34 65 45 -10 16 -23 12
-57 -21z"/>
<path d="M9203 6506 c-15 -13 -25 -27 -21 -31 10 -10 78 25 78 41 0 21 -26 17
-57 -10z"/>
<path d="M8225 6381 l-40 -7 47 -8 c39 -7 136 0 126 9 -9 8 -98 11 -133 6z"/>
<path d="M8746 6371 c-36 -40 14 -71 60 -37 15 12 17 18 8 33 -16 26 -47 27
-68 4z"/>
<path d="M5674 6196 c-10 -8 -16 -18 -11 -22 12 -12 169 -17 197 -6 l25 10
-37 16 c-47 20 -147 21 -174 2z"/>
<path d="M5454 6111 c-70 -25 -121 -53 -107 -58 23 -8 193 56 193 72 0 9 -35
3 -86 -14z"/>
<path d="M5606 6004 c-43 -8 -113 -26 -155 -40 -111 -39 -302 -121 -331 -144
-22 -16 -23 -20 -8 -25 10 -4 54 10 110 36 84 39 103 44 198 50 72 4 132 15
190 34 96 31 200 80 200 95 0 14 -111 11 -204 -6z m43 -20 c-16 -20 -143 -84
-165 -84 -30 0 3 27 78 65 78 39 109 46 87 19z"/>
<path d="M5125 5978 c-125 -44 -385 -165 -385 -180 0 -12 21 -5 152 48 123 50
264 119 273 134 7 12 0 12 -40 -2z"/>
<path d="M4430 5700 c0 -6 27 -10 60 -10 33 0 60 4 60 10 0 6 -27 10 -60 10
-33 0 -60 -4 -60 -10z"/>
<path d="M5095 5255 c-122 -28 -262 -72 -270 -85 -11 -18 15 -19 91 0 96 22
295 88 309 101 14 14 -20 10 -130 -16z"/>
<path d="M6453 6124 c-15 -39 38 -67 60 -32 8 12 7 21 -2 32 -17 21 -50 20
-58 0z"/>
<path d="M6312 5995 c3 -70 8 -99 20 -111 15 -15 17 -14 28 6 16 30 8 126 -14
168 -29 57 -39 39 -34 -63z"/>
<path d="M6093 6010 c-33 -20 -63 -66 -63 -97 0 -10 11 -41 24 -70 33 -71 66
-87 176 -87 95 0 155 16 170 45 10 18 7 19 -36 16 -44 -2 -49 0 -66 30 -11 18
-22 58 -25 90 -7 84 -10 89 -32 62 l-19 -23 -41 27 c-48 32 -47 32 -88 7z"/>
<path d="M6634 5897 c-30 -17 -74 -54 -74 -61 0 -16 79 -4 104 15 49 39 24 78
-30 46z"/>
<path d="M7477 5668 c-19 -41 -40 -128 -33 -135 19 -19 60 87 54 139 l-4 33
-17 -37z"/>
<path d="M8629 5156 c-60 -52 -75 -111 -28 -104 29 4 58 45 66 91 7 43 -2 46
-38 13z"/>
<path d="M8095 5100 c-10 -16 3 -29 43 -40 46 -12 162 -13 162 -1 0 29 -189
67 -205 41z"/>
<path d="M5309 20133 c-21 -52 -14 -116 21 -181 47 -89 259 -322 292 -322 17
0 7 50 -22 107 -19 38 -52 80 -88 113 -31 28 -74 67 -94 86 -37 35 -62 91 -74
172 -8 53 -21 62 -35 25z"/>
<path d="M8892 5714 c-198 -52 -426 -151 -420 -182 9 -43 166 4 398 119 77 38
140 74 140 79 0 14 -13 12 -118 -16z"/>
<path d="M2310 5567 c-13 -7 -34 -26 -45 -43 -12 -17 -71 -195 -133 -395 -183
-598 -225 -761 -208 -805 7 -18 9 -17 32 11 29 35 227 432 310 620 122 279
187 475 156 475 -6 0 -28 -20 -50 -45 -22 -25 -44 -45 -50 -45 -14 0 -32 56
-32 103 0 25 10 57 26 84 14 25 24 46 22 48 -2 2 -15 -1 -28 -8z"/>
<path d="M2114 5404 c-24 -35 -79 -204 -98 -302 -10 -44 -16 -109 -14 -144 l3
-63 83 253 c46 139 81 259 78 267 -8 23 -34 18 -52 -11z"/>
<path d="M9264 5222 c23 -26 179 -102 208 -102 23 1 23 1 3 16 -29 23 -196
104 -213 104 -13 0 -12 -3 2 -18z"/>
<path d="M9852 4783 c-5 -10 -12 -37 -15 -61 -3 -23 -35 -104 -71 -178 l-65
-135 74 -35 c81 -38 112 -69 93 -91 -23 -28 -85 -13 -99 24 -11 29 -34 39 -54
23 -46 -38 8 -96 125 -134 47 -16 137 -53 201 -82 119 -55 161 -64 194 -40 28
20 13 41 -49 69 -48 22 -56 30 -56 53 0 27 0 27 58 20 54 -6 61 -5 85 20 31
31 97 157 97 185 0 12 -7 19 -18 19 -21 0 -56 -36 -95 -97 -37 -58 -72 -60
-86 -5 -12 47 1 121 26 140 11 8 31 11 50 8 18 -2 35 -1 38 3 6 11 -50 99 -93
144 -38 39 -59 46 -68 22 -10 -25 -32 -17 -73 28 -39 41 -125 99 -168 112 -15
4 -25 1 -31 -12z m102 -169 c22 -22 20 -47 -10 -109 -25 -54 -68 -95 -98 -95
-38 0 -47 79 -17 146 30 67 89 94 125 58z m154 -76 c17 -17 15 -90 -4 -137
-26 -65 -111 -82 -136 -26 -34 75 87 216 140 163z m-102 -269 c16 -17 16 -22
4 -29 -30 -19 -60 -2 -60 32 0 25 32 23 56 -3z"/>
<path d="M10352 4539 c6 -17 88 -63 88 -50 0 20 -48 61 -70 61 -12 0 -20 -5
-18 -11z"/>
<path d="M10455 4384 c-38 -41 -62 -162 -36 -179 19 -11 111 141 111 185 0 30
-45 26 -75 -6z"/>
<path d="M9285 4290 c19 -31 145 -68 154 -45 6 16 -79 55 -121 55 -24 0 -37
-4 -33 -10z"/>
<path d="M1140 3704 c-30 -14 -61 -29 -69 -33 -24 -12 -25 -32 -1 -38 17 -4
21 -11 17 -29 -2 -13 1 -24 6 -24 19 0 117 109 117 130 0 24 -2 24 -70 -6z"/>
</g>
</svg>
